Jinko-Light.ufo
<glyph name="exclam" format="1">
  <advance width="426"/>
  <unicode hex="0021"/>
  <outline>
    <contour>
      <point x="213" y="3" type="curve" smooth="yes"/>
      <point x="286" y="3"/>
      <point x="350" y="61"/>
      <point x="350" y="136" type="curve" smooth="yes"/>
      <point x="350" y="210"/>
      <point x="286" y="269"/>
      <point x="213" y="269" type="curve" smooth="yes"/>
      <point x="140" y="269"/>
      <point x="77" y="210"/>
      <point x="77" y="136" type="curve" smooth="yes"/>
      <point x="77" y="61"/>
      <point x="140" y="3"/>
    </contour>
    <contour>
      <point x="194" y="469" type="line"/>
      <point x="236" y="469" type="line"/>
      <point x="298" y="1481" type="line"/>
      <point x="129" y="1481" type="line"/>
    </contour>
  </outline>
</glyph>
<glyph name="quotedbl" format="1">
  <advance width="753"/>
  <unicode hex="0022"/>
  <outline>
    <contour>
      <point x="135" y="937" type="line"/>
      <point x="230" y="937" type="line"/>
      <point x="270" y="1481" type="line"/>
      <point x="96" y="1481" type="line"/>
    </contour>
    <contour>
      <point x="524" y="937" type="line"/>
      <point x="614" y="937" type="line"/>
      <point x="657" y="1481" type="line"/>
      <point x="479" y="1481" type="line"/>
    </contour>
  </outline>
</glyph>
<glyph name="dollar" format="1">
  <advance width="1178"/>
  <unicode hex="0024"/>
  <outline>
    <contour>
      <point x="592" y="-49" type="line"/>
      <point x="680" y="-49" type="line"/>
      <point x="680" y="-23" type="line"/>
      <point x="936" y="16"/>
      <point x="1115" y="102"/>
      <point x="1115" y="354" type="curve" smooth="yes"/>
      <point x="1115" y="601"/>
      <point x="960" y="719"/>
      <point x="681" y="818" type="curve"/>
      <point x="681" y="1507" type="line"/>
      <point x="816" y="1504"/>
      <point x="969" y="1424"/>
      <point x="1102" y="1333" type="curve"/>
      <point x="1115" y="1333" type="line"/>
      <point x="1124" y="1449" type="line"/>
      <point x="984" y="1525"/>
      <point x="860" y="1569"/>
      <point x="680" y="1582" type="curve"/>
      <point x="680" y="1659" type="line"/>
      <point x="592" y="1659" type="line"/>
      <point x="592" y="1580" type="line"/>
      <point x="321" y="1562"/>
      <point x="121" y="1437"/>
      <point x="121" y="1160" type="curve" smooth="yes"/>
      <point x="121" y="965"/>
      <point x="291" y="823"/>
      <point x="588" y="723" type="curve"/>
      <point x="588" y="60" type="line"/>
      <point x="438" y="59"/>
      <point x="243" y="107"/>
      <point x="88" y="281" type="curve"/>
      <point x="69" y="281" type="line"/>
      <point x="56" y="130" type="line"/>
      <point x="212" y="28"/>
      <point x="327" y="-28"/>
      <point x="592" y="-30" type="curve"/>
    </contour>
    <contour>
      <point x="683" y="62" type="curve" smooth="yes"/>
      <point x="677" y="62"/>
      <point x="681" y="63"/>
      <point x="685" y="64" type="curve"/>
      <point x="685" y="700" type="line"/>
      <point x="961" y="610"/>
      <point x="1021" y="501"/>
      <point x="1021" y="356" type="curve" smooth="yes"/>
      <point x="1021" y="252"/>
      <point x="988" y="76"/>
    </contour>
    <contour>
      <point x="585" y="852" type="line"/>
      <point x="314" y="917"/>
      <point x="209" y="1039"/>
      <point x="209" y="1188" type="curve" smooth="yes"/>
      <point x="209" y="1313"/>
      <point x="285" y="1490"/>
      <point x="585" y="1498" type="curve"/>
    </contour>
  </outline>
</glyph>
<glyph name="percent" format="1">
  <advance width="1560"/>
  <unicode hex="0025"/>
  <outline>
    <contour>
      <point x="238" y="749" type="curve" smooth="yes"/>
      <point x="82" y="749"/>
      <point x="5" y="812"/>
      <point x="5" y="1094" type="curve" smooth="yes"/>
      <point x="5" y="1405"/>
      <point x="85" y="1455"/>
      <point x="235" y="1455" type="curve" smooth="yes"/>
      <point x="391" y="1455"/>
      <point x="464" y="1397"/>
      <point x="464" y="1110" type="curve" smooth="yes"/>
      <point x="464" y="807"/>
      <point x="388" y="749"/>
    </contour>
    <contour>
      <point x="235" y="736" type="curve" smooth="yes"/>
      <point x="459" y="736"/>
      <point x="493" y="878"/>
      <point x="493" y="1102" type="curve" smooth="yes"/>
      <point x="493" y="1322"/>
      <point x="470" y="1456"/>
      <point x="238" y="1456" type="curve"/>
      <point x="6" y="1453"/>
      <point x="-26" y="1314"/>
      <point x="-26" y="1091" type="curve" smooth="yes"/>
      <point x="-26" y="869"/>
      <point x="4" y="736"/>
    </contour>
    <contour>
      <point x="377" y="0" type="line"/>
      <point x="434" y="0" type="line"/>
      <point x="1162" y="1459" type="line"/>
      <point x="1110" y="1459" type="line"/>
    </contour>
    <contour>
      <point x="1324" y="16" type="curve" smooth="yes"/>
      <point x="1168" y="16"/>
      <point x="1097" y="80"/>
      <point x="1097" y="363" type="curve" smooth="yes"/>
      <point x="1097" y="674"/>
      <point x="1174" y="719"/>
      <point x="1327" y="717" type="curve" smooth="yes"/>
      <point x="1483" y="717"/>
      <point x="1556" y="664"/>
      <point x="1556" y="378" type="curve" smooth="yes"/>
      <point x="1556" y="74"/>
      <point x="1472" y="16"/>
    </contour>
    <contour>
      <point x="1324" y="1" type="curve" smooth="yes"/>
      <point x="1548" y="1"/>
      <point x="1587" y="144"/>
      <point x="1587" y="369" type="curve" smooth="yes"/>
      <point x="1587" y="589"/>
      <point x="1556" y="721"/>
      <point x="1324" y="723" type="curve"/>
      <point x="1092" y="720"/>
      <point x="1062" y="581"/>
      <point x="1062" y="359" type="curve" smooth="yes"/>
      <point x="1062" y="136"/>
      <point x="1093" y="1"/>
    </contour>
  </outline>
</glyph>
<glyph name="ampersand" format="1">
  <advance width="1375"/>
  <unicode hex="0026"/>
  <outline>
    <contour>
      <point x="591" y="-23" type="curve" smooth="yes"/>
      <point x="748" y="-23"/>
      <point x="927" y="8"/>
      <point x="1056" y="109" type="curve"/>
      <point x="1131" y="39"/>
      <point x="1176" y="0"/>
      <point x="1176" y="0" type="curve"/>
      <point x="1319" y="0" type="line"/>
      <point x="1319" y="0"/>
      <point x="1105" y="177"/>
      <point x="1106" y="174" type="curve"/>
      <point x="1183" y="262"/>
      <point x="1270" y="414"/>
      <point x="1298" y="582" type="curve"/>
      <point x="1212" y="593" type="line"/>
      <point x="1173" y="364"/>
      <point x="1078" y="292"/>
      <point x="1040" y="238" type="curve"/>
      <point x="1116" y="162"/>
      <point x="435" y="857"/>
      <point x="510" y="779" type="curve"/>
      <point x="867" y="884"/>
      <point x="987" y="1039"/>
      <point x="995" y="1150" type="curve"/>
      <point x="1017" y="1341"/>
      <point x="897" y="1503"/>
      <point x="613" y="1503" type="curve"/>
      <point x="261" y="1503"/>
      <point x="165" y="1353"/>
      <point x="165" y="1190" type="curve" smooth="yes"/>
      <point x="165" y="1049"/>
      <point x="276" y="890"/>
      <point x="365" y="807" type="curve"/>
      <point x="131" y="697"/>
      <point x="65" y="478"/>
      <point x="65" y="354" type="curve" smooth="yes"/>
      <point x="65" y="92"/>
      <point x="319" y="-23"/>
    </contour>
    <contour>
      <point x="604" y="81" type="curve" smooth="yes"/>
      <point x="282" y="81"/>
      <point x="167" y="206"/>
      <point x="167" y="355" type="curve" smooth="yes"/>
      <point x="167" y="522"/>
      <point x="324" y="689"/>
      <point x="424" y="741" type="curve"/>
      <point x="295" y="870"/>
      <point x="1101" y="55"/>
      <point x="972" y="183" type="curve"/>
      <point x="858" y="115"/>
      <point x="772" y="81"/>
    </contour>
    <contour>
      <point x="451" y="846" type="curve"/>
      <point x="311" y="1000"/>
      <point x="271" y="1087"/>
      <point x="263" y="1166" type="curve"/>
      <point x="268" y="1319"/>
      <point x="344" y="1405"/>
      <point x="585" y="1418" type="curve"/>
      <point x="862" y="1418"/>
      <point x="898" y="1277"/>
      <point x="898" y="1178" type="curve" smooth="yes"/>
      <point x="898" y="1059"/>
      <point x="755" y="935"/>
    </contour>
  </outline>
</glyph>
<glyph name="quotesingle" format="1">
  <advance width="375"/>
  <unicode hex="0027"/>
  <outline>
    <contour>
      <point x="134" y="908" type="line"/>
      <point x="205" y="908" type="line"/>
      <point x="288" y="1481" type="line"/>
      <point x="94" y="1481" type="line"/>
    </contour>
  </outline>
</glyph>
<glyph name="parenleft" format="1">
  <advance width="351"/>
  <unicode hex="0028"/>
  <outline>
    <contour>
      <point x="314" y="-305" type="curve"/>
      <point x="381" y="-305" type="line"/>
      <point x="385" y="-320"/>
      <point x="382" y="-230"/>
      <point x="384" y="-247" type="curve"/>
      <point x="239" y="-77"/>
      <point x="71" y="196"/>
      <point x="71" y="543" type="curve" smooth="yes"/>
      <point x="71" y="872"/>
      <point x="211" y="1118"/>
      <point x="381" y="1305" type="curve"/>
      <point x="378" y="1289"/>
      <point x="382" y="1374"/>
      <point x="378" y="1359" type="curve"/>
      <point x="314" y="1359" type="line"/>
      <point x="114" y="1132"/>
      <point x="-23" y="868"/>
      <point x="-23" y="551" type="curve" smooth="yes"/>
      <point x="-23" y="173"/>
      <point x="111" y="-76"/>
    </contour>
  </outline>
</glyph>
<glyph name="parenright" format="1">
  <advance width="430"/>
  <unicode hex="0029"/>
  <outline>
    <contour>
      <point x="-31" y="-305" type="curve"/>
      <point x="122" y="-305" type="line"/>
      <point x="322" y="-77"/>
      <point x="452" y="188"/>
      <point x="452" y="525" type="curve" smooth="yes"/>
      <point x="452" y="888"/>
      <point x="322" y="1131"/>
      <point x="122" y="1359" type="curve"/>
      <point x="-30" y="1359" type="line"/>
      <point x="-34" y="1374"/>
      <point x="-30" y="1288"/>
      <point x="-33" y="1305" type="curve"/>
      <point x="122" y="1131"/>
      <point x="284" y="865"/>
      <point x="284" y="525" type="curve" smooth="yes"/>
      <point x="284" y="193"/>
      <point x="130" y="-65"/>
      <point x="-35" y="-247" type="curve"/>
      <point x="-32" y="-231"/>
      <point x="-35" y="-320"/>
    </contour>
  </outline>
</glyph>
<glyph name="plus" format="1">
  <advance width="1165"/>
  <unicode hex="002B"/>
  <outline>
    <contour>
      <point x="530" y="148" type="line"/>
      <point x="612" y="148" type="line"/>
      <point x="612" y="502" type="line"/>
      <point x="1063" y="502" type="line"/>
      <point x="1063" y="598" type="line"/>
      <point x="612" y="598" type="line"/>
      <point x="612" y="964" type="line"/>
      <point x="530" y="964" type="line"/>
      <point x="530" y="598" type="line"/>
      <point x="100" y="598" type="line"/>
      <point x="100" y="502" type="line"/>
      <point x="530" y="502" type="line"/>
    </contour>
  </outline>
</glyph>
<glyph name="comma" format="1">
  <advance width="331"/>
  <unicode hex="002C"/>
  <outline>
    <contour>
      <point x="102" y="-186" type="line"/>
      <point x="180" y="-186" type="line"/>
      <point x="293" y="304" type="line"/>
      <point x="131" y="304" type="line"/>
    </contour>
  </outline>
</glyph>
<glyph name="hyphen" format="1">
  <advance width="759"/>
  <unicode hex="002D"/>
  <outline>
    <contour>
      <point x="106" y="651" type="line"/>
      <point x="652" y="651" type="line"/>
      <point x="652" y="756" type="line"/>
      <point x="106" y="756" type="line"/>
    </contour>
  </outline>
</glyph>
<glyph name="period" format="1">
  <advance width="473"/>
  <unicode hex="002E"/>
  <outline>
    <contour>
      <point x="244" y="6" type="curve" smooth="yes"/>
      <point x="313" y="6"/>
      <point x="370" y="61"/>
      <point x="370" y="133" type="curve" smooth="yes"/>
      <point x="370" y="201"/>
      <point x="313" y="258"/>
      <point x="244" y="258" type="curve" smooth="yes"/>
      <point x="172" y="258"/>
      <point x="113" y="201"/>
      <point x="113" y="133" type="curve" smooth="yes"/>
      <point x="113" y="61"/>
      <point x="172" y="6"/>
    </contour>
  </outline>
</glyph>
<glyph name="slash" format="1">
  <advance width="871"/>
  <unicode hex="002F"/>
  <outline>
    <contour>
      <point x="-36" y="0" type="line"/>
      <point x="52" y="0" type="line"/>
      <point x="902" y="1482" type="line"/>
      <point x="823" y="1482" type="line"/>
    </contour>
  </outline>
</glyph>
<glyph name="one" format="1">
  <advance width="871"/>
  <unicode hex="0031"/>
  <outline>
    <contour>
      <point x="126" y="0" type="line"/>
      <point x="838" y="0" type="line"/>
      <point x="838" y="95" type="line"/>
      <point x="548" y="95" type="line"/>
      <point x="548" y="1481" type="line"/>
      <point x="479" y="1481" type="line"/>
      <point x="453" y="1414"/>
      <point x="411" y="1376"/>
      <point x="144" y="1328" type="curve"/>
      <point x="144" y="1224" type="line"/>
      <point x="421" y="1289" type="line"/>
      <point x="421" y="95" type="line"/>
      <point x="126" y="95" type="line"/>
    </contour>
  </outline>
</glyph>
<glyph name="two" format="1">
  <advance width="1197"/>
  <unicode hex="0032"/>
  <outline>
    <contour>
      <point x="137" y="0" type="line"/>
      <point x="1046" y="0" type="line"/>
      <point x="1046" y="95" type="line"/>
      <point x="241" y="95" type="line"/>
      <point x="788" y="595"/>
      <point x="1071" y="841"/>
      <point x="1071" y="1134" type="curve" smooth="yes"/>
      <point x="1071" y="1363"/>
      <point x="916" y="1503"/>
      <point x="613" y="1503" type="curve" smooth="yes"/>
      <point x="450" y="1503"/>
      <point x="234" y="1438"/>
      <point x="159" y="1372" type="curve"/>
      <point x="186" y="1274" type="line"/>
      <point x="164" y="1259"/>
      <point x="327" y="1411"/>
      <point x="613" y="1411" type="curve" smooth="yes"/>
      <point x="898" y="1411"/>
      <point x="931" y="1233"/>
      <point x="940" y="1092" type="curve"/>
      <point x="940" y="858"/>
      <point x="656" y="634"/>
      <point x="137" y="134" type="curve"/>
    </contour>
  </outline>
</glyph>
<glyph name="three" format="1">
  <advance width="1159"/>
  <unicode hex="0033"/>
  <outline>
    <contour>
      <point x="556" y="-23" type="curve" smooth="yes"/>
      <point x="866" y="-23"/>
      <point x="1065" y="71"/>
      <point x="1065" y="402" type="curve" smooth="yes"/>
      <point x="1065" y="604"/>
      <point x="942" y="763"/>
      <point x="724" y="806" type="curve"/>
      <point x="900" y="840"/>
      <point x="1011" y="951"/>
      <point x="1011" y="1151" type="curve" smooth="yes"/>
      <point x="1011" y="1316"/>
      <point x="913" y="1503"/>
      <point x="573" y="1503" type="curve" smooth="yes"/>
      <point x="390" y="1503"/>
      <point x="273" y="1474"/>
      <point x="174" y="1406" type="curve"/>
      <point x="174" y="1336" type="line"/>
      <point x="217" y="1336" type="line"/>
      <point x="217" y="1336"/>
      <point x="266" y="1413"/>
      <point x="591" y="1413" type="curve" smooth="yes"/>
      <point x="817" y="1413"/>
      <point x="888" y="1282"/>
      <point x="888" y="1129" type="curve" smooth="yes"/>
      <point x="888" y="984"/>
      <point x="837" y="843"/>
      <point x="534" y="843" type="curve" smooth="yes"/>
      <point x="369" y="843" type="line"/>
      <point x="369" y="748" type="line"/>
      <point x="556" y="748" type="line" smooth="yes"/>
      <point x="837" y="748"/>
      <point x="954" y="601"/>
      <point x="954" y="368" type="curve" smooth="yes"/>
      <point x="954" y="102"/>
      <point x="765" y="73"/>
      <point x="598" y="73" type="curve" smooth="yes"/>
      <point x="497" y="73"/>
      <point x="293" y="96"/>
      <point x="206" y="172" type="curve"/>
      <point x="174" y="172" type="line"/>
      <point x="174" y="85" type="line"/>
      <point x="201" y="64"/>
      <point x="337" y="-23"/>
    </contour>
  </outline>
</glyph>
<glyph name="four" format="1">
  <advance width="1152"/>
  <unicode hex="0034"/>
  <outline>
    <contour>
      <point x="819" y="0" type="line"/>
      <point x="948" y="0" type="line"/>
      <point x="948" y="343" type="line"/>
      <point x="1099" y="343" type="line"/>
      <point x="1099" y="443" type="line"/>
      <point x="948" y="443" type="line"/>
      <point x="948" y="1481" type="line"/>
      <point x="794" y="1481" type="line"/>
      <point x="69" y="455" type="line"/>
      <point x="69" y="343" type="line"/>
      <point x="819" y="343" type="line"/>
    </contour>
    <contour>
      <point x="198" y="443" type="line"/>
      <point x="819" y="1340" type="line"/>
      <point x="819" y="443" type="line"/>
    </contour>
  </outline>
</glyph>
<glyph name="five" format="1">
  <advance width="1244"/>
  <unicode hex="0035"/>
  <outline>
    <contour>
      <point x="607" y="-23" type="curve" smooth="yes"/>
      <point x="925" y="-23"/>
      <point x="1123" y="140"/>
      <point x="1123" y="413" type="curve" smooth="yes"/>
      <point x="1123" y="693"/>
      <point x="907" y="899"/>
      <point x="415" y="919" type="curve" smooth="yes"/>
      <point x="378" y="921"/>
      <point x="320" y="927"/>
      <point x="320" y="927" type="curve" smooth="yes"/>
      <point x="320" y="1386" type="line"/>
      <point x="963" y="1386" type="line"/>
      <point x="963" y="1481" type="line"/>
      <point x="202" y="1481" type="line"/>
      <point x="202" y="848" type="line"/>
      <point x="202" y="848"/>
      <point x="390" y="830"/>
      <point x="324" y="837" type="curve" smooth="yes"/>
      <point x="967" y="795"/>
      <point x="999" y="585"/>
      <point x="999" y="381" type="curve" smooth="yes"/>
      <point x="999" y="237"/>
      <point x="892" y="72"/>
      <point x="597" y="72" type="curve" smooth="yes"/>
      <point x="273" y="72"/>
      <point x="227" y="170"/>
      <point x="209" y="170" type="curve" smooth="yes"/>
      <point x="165" y="170" type="line"/>
      <point x="165" y="67" type="line"/>
      <point x="265" y="19"/>
      <point x="406" y="-23"/>
    </contour>
  </outline>
</glyph>
<glyph name="seven" format="1">
  <advance width="1107"/>
  <unicode hex="0037"/>
  <outline>
    <contour>
      <point x="359" y="0" type="line"/>
      <point x="478" y="0" type="line"/>
      <point x="989" y="1391" type="line"/>
      <point x="989" y="1481" type="line"/>
      <point x="114" y="1481" type="line"/>
      <point x="114" y="1160" type="line"/>
      <point x="242" y="1160" type="line"/>
      <point x="242" y="1386" type="line"/>
      <point x="872" y="1386" type="line"/>
    </contour>
  </outline>
</glyph>
<glyph name="eight" format="1">
  <advance width="1226"/>
  <unicode hex="0038"/>
  <outline>
    <contour>
      <point x="614" y="-23" type="curve" smooth="yes"/>
      <point x="939" y="-23"/>
      <point x="1130" y="160"/>
      <point x="1130" y="418" type="curve" smooth="yes"/>
      <point x="1130" y="582"/>
      <point x="958" y="697"/>
      <point x="803" y="776" type="curve"/>
      <point x="1021" y="907"/>
      <point x="1096" y="999"/>
      <point x="1096" y="1193" type="curve"/>
      <point x="1096" y="1372"/>
      <point x="906" y="1498"/>
      <point x="616" y="1498" type="curve" smooth="yes"/>
      <point x="343" y="1498"/>
      <point x="141" y="1365"/>
      <point x="141" y="1189" type="curve" smooth="yes"/>
      <point x="141" y="1056"/>
      <point x="231" y="949"/>
      <point x="506" y="806" type="curve"/>
      <point x="345" y="722"/>
      <point x="96" y="577"/>
      <point x="96" y="336" type="curve" smooth="yes"/>
      <point x="96" y="160"/>
      <point x="295" y="-23"/>
    </contour>
    <contour>
      <point x="621" y="85" type="curve" smooth="yes"/>
      <point x="337" y="85"/>
      <point x="217" y="160"/>
      <point x="217" y="332" type="curve" smooth="yes"/>
      <point x="217" y="540"/>
      <point x="494" y="706"/>
      <point x="574" y="747" type="curve"/>
      <point x="843" y="629"/>
      <point x="999" y="519"/>
      <point x="999" y="370" type="curve" smooth="yes"/>
      <point x="999" y="264"/>
      <point x="942" y="85"/>
    </contour>
    <contour>
      <point x="735" y="820" type="curve"/>
      <point x="579" y="877"/>
      <point x="274" y="1061"/>
      <point x="274" y="1184" type="curve" smooth="yes"/>
      <point x="274" y="1400"/>
      <point x="544" y="1397"/>
      <point x="632" y="1397" type="curve" smooth="yes"/>
      <point x="822" y="1397"/>
      <point x="985" y="1341"/>
      <point x="985" y="1202" type="curve" smooth="yes"/>
      <point x="985" y="995"/>
      <point x="776" y="857"/>
    </contour>
  </outline>
</glyph>
<glyph name="nine" format="1">
  <advance width="1216"/>
  <unicode hex="0039"/>
  <outline>
    <contour>
      <point x="380" y="-21" type="curve" smooth="yes"/>
      <point x="839" y="-23"/>
      <point x="1102" y="457"/>
      <point x="1102" y="932" type="curve" smooth="yes"/>
      <point x="1102" y="1279"/>
      <point x="888" y="1484"/>
      <point x="601" y="1484" type="curve" smooth="yes"/>
      <point x="328" y="1484"/>
      <point x="125" y="1291"/>
      <point x="125" y="1017" type="curve" smooth="yes"/>
      <point x="125" y="743"/>
      <point x="357" y="589"/>
      <point x="585" y="589" type="curve" smooth="yes"/>
      <point x="670" y="589"/>
      <point x="914" y="617"/>
      <point x="990" y="811" type="curve"/>
      <point x="977" y="465"/>
      <point x="716" y="46"/>
      <point x="358" y="69" type="curve"/>
      <point x="358" y="69"/>
      <point x="371" y="-21"/>
    </contour>
    <contour>
      <point x="580" y="684" type="curve" smooth="yes"/>
      <point x="334" y="684"/>
      <point x="250" y="868"/>
      <point x="250" y="1008" type="curve" smooth="yes"/>
      <point x="250" y="1194"/>
      <point x="326" y="1388"/>
      <point x="623" y="1388" type="curve" smooth="yes"/>
      <point x="847" y="1388"/>
      <point x="960" y="1207"/>
      <point x="960" y="1055" type="curve" smooth="yes"/>
      <point x="960" y="831"/>
      <point x="842" y="682"/>
    </contour>
  </outline>
</glyph>
<glyph name="semicolon" format="1">
  <advance width="372"/>
  <unicode hex="003B"/>
  <outline>
    <contour>
      <point x="96" y="-186" type="line"/>
      <point x="174" y="-186" type="line"/>
      <point x="287" y="304" type="line"/>
      <point x="125" y="304" type="line"/>
    </contour>
    <contour>
      <point x="210" y="763" type="curve" smooth="yes"/>
      <point x="284" y="763"/>
      <point x="346" y="824"/>
      <point x="346" y="899" type="curve" smooth="yes"/>
      <point x="346" y="972"/>
      <point x="284" y="1032"/>
      <point x="210" y="1032" type="curve" smooth="yes"/>
      <point x="135" y="1032"/>
      <point x="74" y="972"/>
      <point x="74" y="899" type="curve" smooth="yes"/>
      <point x="74" y="824"/>
      <point x="135" y="763"/>
    </contour>
  </outline>
</glyph>
<glyph name="less" format="1">
  <advance width="952"/>
  <unicode hex="003C"/>
  <outline>
    <contour>
      <point x="977" y="-14" type="line"/>
      <point x="977" y="82" type="line"/>
      <point x="11" y="566" type="line"/>
      <point x="977" y="1044" type="line"/>
      <point x="977" y="1155" type="line"/>
      <point x="-30" y="607" type="line"/>
      <point x="-30" y="537" type="line"/>
    </contour>
  </outline>
</glyph>
<glyph name="equal" format="1">
  <advance width="1090"/>
  <unicode hex="003D"/>
  <outline>
    <contour>
      <point x="106" y="436" type="line"/>
      <point x="984" y="436" type="line"/>
      <point x="984" y="475" type="line"/>
      <point x="106" y="475" type="line"/>
    </contour>
    <contour>
      <point x="106" y="875" type="line"/>
      <point x="984" y="875" type="line"/>
      <point x="984" y="916" type="line"/>
      <point x="106" y="916" type="line"/>
    </contour>
  </outline>
</glyph>
<glyph name="greater" format="1">
  <advance width="952"/>
  <unicode hex="003E"/>
  <outline>
    <contour>
      <point x="-24" y="-14" type="line"/>
      <point x="983" y="534" type="line"/>
      <point x="983" y="606" type="line"/>
      <point x="-24" y="1155" type="line"/>
      <point x="-24" y="1062" type="line"/>
      <point x="942" y="577" type="line"/>
      <point x="-24" y="100" type="line"/>
    </contour>
  </outline>
</glyph>
<glyph name="question" format="1">
  <advance width="872"/>
  <unicode hex="003F"/>
  <outline>
    <contour>
      <point x="316" y="425" type="line"/>
      <point x="518" y="638"/>
      <point x="796" y="958"/>
      <point x="796" y="1208" type="curve" smooth="yes"/>
      <point x="796" y="1356"/>
      <point x="694" y="1503"/>
      <point x="456" y="1503" type="curve" smooth="yes"/>
      <point x="279" y="1503"/>
      <point x="134" y="1422"/>
      <point x="75" y="1386" type="curve"/>
      <point x="75" y="1286" type="line"/>
      <point x="209" y="1368"/>
      <point x="325" y="1404"/>
      <point x="457" y="1404" type="curve" smooth="yes"/>
      <point x="653" y="1404"/>
      <point x="695" y="1294"/>
      <point x="695" y="1203" type="curve" smooth="yes"/>
      <point x="695" y="1009"/>
      <point x="429" y="675"/>
      <point x="270" y="450" type="curve"/>
    </contour>
    <contour>
      <point x="340" y="3" type="curve" smooth="yes"/>
      <point x="410" y="3"/>
      <point x="462" y="58"/>
      <point x="462" y="127" type="curve" smooth="yes"/>
      <point x="462" y="197"/>
      <point x="410" y="255"/>
      <point x="340" y="255" type="curve" smooth="yes"/>
      <point x="271" y="255"/>
      <point x="212" y="197"/>
      <point x="212" y="127" type="curve" smooth="yes"/>
      <point x="212" y="58"/>
      <point x="271" y="3"/>
    </contour>
  </outline>
</glyph>
<glyph name="A" format="1">
  <advance width="1295"/>
  <unicode hex="0041"/>
  <outline>
    <contour>
      <point x="35" y="0" type="line"/>
      <point x="170" y="0" type="line"/>
      <point x="315" y="428" type="line"/>
      <point x="983" y="428" type="line"/>
      <point x="1123" y="0" type="line"/>
      <point x="1259" y="0" type="line"/>
      <point x="735" y="1481" type="line"/>
      <point x="538" y="1481" type="line"/>
    </contour>
    <contour>
      <point x="348" y="524" type="line"/>
      <point x="636" y="1426" type="line"/>
      <point x="941" y="524" type="line"/>
    </contour>
  </outline>
</glyph>
<glyph name="B" format="1">
  <advance width="1250"/>
  <unicode hex="0042"/>
  <outline>
    <contour>
      <point x="124" y="0" type="line"/>
      <point x="603" y="0" type="line" smooth="yes"/>
      <point x="943" y="0"/>
      <point x="1154" y="131"/>
      <point x="1154" y="453" type="curve" smooth="yes"/>
      <point x="1154" y="635"/>
      <point x="1009" y="796"/>
      <point x="802" y="817" type="curve"/>
      <point x="802" y="825" type="line"/>
      <point x="963" y="862"/>
      <point x="1052" y="993"/>
      <point x="1052" y="1116" type="curve" smooth="yes"/>
      <point x="1052" y="1386"/>
      <point x="872" y="1481"/>
      <point x="549" y="1481" type="curve" smooth="yes"/>
      <point x="124" y="1481" type="line"/>
    </contour>
    <contour>
      <point x="253" y="95" type="line"/>
      <point x="253" y="771" type="line"/>
      <point x="676" y="771" type="line" smooth="yes"/>
      <point x="860" y="771"/>
      <point x="1025" y="615"/>
      <point x="1025" y="450" type="curve" smooth="yes"/>
      <point x="1025" y="329"/>
      <point x="1012" y="95"/>
      <point x="640" y="95" type="curve" smooth="yes"/>
    </contour>
    <contour>
      <point x="253" y="851" type="line"/>
      <point x="253" y="1386" type="line"/>
      <point x="600" y="1386" type="line" smooth="yes"/>
      <point x="808" y="1386"/>
      <point x="924" y="1266"/>
      <point x="924" y="1131" type="curve" smooth="yes"/>
      <point x="924" y="989"/>
      <point x="828" y="851"/>
      <point x="607" y="851" type="curve" smooth="yes"/>
    </contour>
  </outline>
</glyph>
<glyph name="C" format="1">
  <advance width="1194"/>
  <unicode hex="0043"/>
  <outline>
    <contour>
      <point x="705" y="-23" type="curve" smooth="yes"/>
      <point x="907" y="-23"/>
      <point x="1054" y="45"/>
      <point x="1114" y="106" type="curve"/>
      <point x="1090" y="194" type="line"/>
      <point x="1090" y="194"/>
      <point x="949" y="80"/>
      <point x="700" y="80" type="curve" smooth="yes"/>
      <point x="407" y="80"/>
      <point x="211" y="244"/>
      <point x="211" y="744" type="curve" smooth="yes"/>
      <point x="211" y="1222"/>
      <point x="434" y="1404"/>
      <point x="702" y="1404" type="curve" smooth="yes"/>
      <point x="966" y="1404"/>
      <point x="1084" y="1301"/>
      <point x="1084" y="1301" type="curve"/>
      <point x="1118" y="1389" type="line"/>
      <point x="1095" y="1418"/>
      <point x="908" y="1505"/>
      <point x="712" y="1505" type="curve" smooth="yes"/>
      <point x="345" y="1505"/>
      <point x="92" y="1241"/>
      <point x="92" y="748" type="curve" smooth="yes"/>
      <point x="92" y="258"/>
      <point x="258" y="-23"/>
    </contour>
  </outline>
</glyph>
<glyph name="D" format="1">
  <advance width="1396"/>
  <unicode hex="0044"/>
  <outline>
    <contour>
      <point x="253" y="95" type="line"/>
      <point x="253" y="1381" type="line"/>
      <point x="547" y="1381" type="line" smooth="yes"/>
      <point x="966" y="1381"/>
      <point x="1170" y="1153"/>
      <point x="1170" y="740" type="curve" smooth="yes"/>
      <point x="1170" y="305"/>
      <point x="949" y="95"/>
      <point x="550" y="95" type="curve" smooth="yes"/>
    </contour>
    <contour>
      <point x="124" y="0" type="line"/>
      <point x="532" y="0" type="line" smooth="yes"/>
      <point x="1085" y="0"/>
      <point x="1299" y="266"/>
      <point x="1299" y="740" type="curve" smooth="yes"/>
      <point x="1299" y="1234"/>
      <point x="1016" y="1481"/>
      <point x="545" y="1481" type="curve" smooth="yes"/>
      <point x="124" y="1481" type="line"/>
    </contour>
  </outline>
</glyph>
<glyph name="E" format="1">
  <advance width="1027"/>
  <unicode hex="0045"/>
  <outline>
    <contour>
      <point x="124" y="0" type="line"/>
      <point x="955" y="0" type="line"/>
      <point x="955" y="95" type="line"/>
      <point x="253" y="95" type="line"/>
      <point x="253" y="735" type="line"/>
      <point x="865" y="735" type="line"/>
      <point x="865" y="828" type="line"/>
      <point x="253" y="828" type="line"/>
      <point x="253" y="1386" type="line"/>
      <point x="915" y="1386" type="line"/>
      <point x="915" y="1481" type="line"/>
      <point x="124" y="1481" type="line"/>
    </contour>
  </outline>
</glyph>
<glyph name="F" format="1">
  <advance width="925"/>
  <unicode hex="0046"/>
  <outline>
    <contour>
      <point x="124" y="0" type="line"/>
      <point x="253" y="0" type="line"/>
      <point x="253" y="745" type="line"/>
      <point x="837" y="745" type="line"/>
      <point x="837" y="843" type="line"/>
      <point x="253" y="843" type="line"/>
      <point x="253" y="1383" type="line"/>
      <point x="898" y="1383" type="line"/>
      <point x="898" y="1481" type="line"/>
      <point x="124" y="1481" type="line"/>
    </contour>
  </outline>
</glyph>
<glyph name="G" format="1">
  <advance width="1413"/>
  <unicode hex="0047"/>
  <outline>
    <contour>
      <point x="765" y="-23" type="curve" smooth="yes"/>
      <point x="1104" y="-23"/>
      <point x="1278" y="101"/>
      <point x="1263" y="103" type="curve"/>
      <point x="1263" y="782" type="line"/>
      <point x="727" y="782" type="line"/>
      <point x="727" y="695" type="line"/>
      <point x="1160" y="695" type="line"/>
      <point x="1160" y="162" type="line"/>
      <point x="1162" y="161"/>
      <point x="1040" y="80"/>
      <point x="762" y="80" type="curve" smooth="yes"/>
      <point x="384" y="80"/>
      <point x="218" y="288"/>
      <point x="218" y="746" type="curve" smooth="yes"/>
      <point x="218" y="1210"/>
      <point x="486" y="1406"/>
      <point x="810" y="1406" type="curve" smooth="yes"/>
      <point x="1009" y="1406"/>
      <point x="1221" y="1317"/>
      <point x="1221" y="1314" type="curve"/>
      <point x="1253" y="1414" type="line"/>
      <point x="1137" y="1463"/>
      <point x="969" y="1503"/>
      <point x="791" y="1503" type="curve" smooth="yes"/>
      <point x="366" y="1503"/>
      <point x="92" y="1242"/>
      <point x="92" y="749" type="curve" smooth="yes"/>
      <point x="92" y="277"/>
      <point x="277" y="-23"/>
    </contour>
  </outline>
</glyph>
<glyph name="H" format="1">
  <advance width="1359"/>
  <unicode hex="0048"/>
  <outline>
    <contour>
      <point x="124" y="0" type="line"/>
      <point x="253" y="0" type="line"/>
      <point x="253" y="721" type="line"/>
      <point x="1105" y="721" type="line"/>
      <point x="1105" y="0" type="line"/>
      <point x="1234" y="0" type="line"/>
      <point x="1234" y="1481" type="line"/>
      <point x="1105" y="1481" type="line"/>
      <point x="1105" y="808" type="line"/>
      <point x="253" y="808" type="line"/>
      <point x="253" y="1481" type="line"/>
      <point x="124" y="1481" type="line"/>
    </contour>
  </outline>
</glyph>
<glyph name="I" format="1">
  <advance width="824"/>
  <unicode hex="0049"/>
  <outline>
    <contour>
      <point x="113" y="0" type="line"/>
      <point x="728" y="0" type="line"/>
      <point x="728" y="71" type="line"/>
      <point x="484" y="71" type="line"/>
      <point x="484" y="1406" type="line"/>
      <point x="728" y="1406" type="line"/>
      <point x="728" y="1481" type="line"/>
      <point x="113" y="1481" type="line"/>
      <point x="113" y="1406" type="line"/>
      <point x="356" y="1406" type="line"/>
      <point x="356" y="71" type="line"/>
      <point x="113" y="71" type="line"/>
    </contour>
  </outline>
</glyph>
<glyph name="J" format="1">
  <advance width="850"/>
  <unicode hex="004A"/>
  <outline>
    <contour>
      <point x="404" y="-19" type="curve" smooth="yes"/>
      <point x="632" y="-19"/>
      <point x="727" y="128"/>
      <point x="727" y="442" type="curve" smooth="yes"/>
      <point x="727" y="1481" type="line"/>
      <point x="397" y="1481" type="line"/>
      <point x="397" y="1386" type="line"/>
      <point x="599" y="1386" type="line"/>
      <point x="599" y="401" type="line" smooth="yes"/>
      <point x="599" y="142"/>
      <point x="496" y="76"/>
      <point x="359" y="76" type="curve" smooth="yes"/>
      <point x="225" y="76"/>
      <point x="79" y="171"/>
      <point x="146" y="142" type="curve"/>
      <point x="130" y="49" type="line"/>
      <point x="111" y="60"/>
      <point x="266" y="-19"/>
    </contour>
  </outline>
</glyph>
<glyph name="K" format="1">
  <advance width="1191"/>
  <unicode hex="004B"/>
  <outline>
    <contour>
      <point x="124" y="0" type="line"/>
      <point x="253" y="0" type="line"/>
      <point x="253" y="507" type="line"/>
      <point x="542" y="814" type="line"/>
      <point x="608" y="708" type="line"/>
      <point x="697" y="559"/>
      <point x="1103" y="-127"/>
      <point x="1029" y="0" type="curve"/>
      <point x="1177" y="0" type="line"/>
      <point x="627" y="916" type="line"/>
      <point x="1149" y="1481" type="line"/>
      <point x="969" y="1481" type="line" smooth="yes"/>
      <point x="969" y="1481"/>
      <point x="574" y="1012"/>
      <point x="577" y="1029" type="curve"/>
      <point x="254" y="670" type="line"/>
      <point x="253" y="670" type="line"/>
      <point x="253" y="1481" type="line"/>
      <point x="124" y="1481" type="line"/>
    </contour>
  </outline>
</glyph>
<glyph name="M" format="1">
  <advance width="1494"/>
  <unicode hex="004D"/>
  <outline>
    <contour>
      <point x="124" y="0" type="line"/>
      <point x="252" y="0" type="line"/>
      <point x="252" y="1044" type="line"/>
      <point x="242" y="1279" type="line"/>
      <point x="704" y="492" type="line"/>
      <point x="810" y="492" type="line"/>
      <point x="1250" y="1279" type="line"/>
      <point x="1241" y="1044" type="line"/>
      <point x="1241" y="0" type="line"/>
      <point x="1368" y="0" type="line"/>
      <point x="1368" y="1481" type="line"/>
      <point x="1254" y="1481" type="line"/>
      <point x="748" y="604" type="line"/>
      <point x="240" y="1481" type="line"/>
      <point x="124" y="1481" type="line"/>
    </contour>
  </outline>
</glyph>
<glyph name="N" format="1">
  <advance width="1445"/>
  <unicode hex="004E"/>
  <outline>
    <contour>
      <point x="124" y="0" type="line"/>
      <point x="251" y="0" type="line"/>
      <point x="251" y="1041" type="line"/>
      <point x="246" y="1237" type="line"/>
      <point x="1219" y="0" type="line"/>
      <point x="1319" y="0" type="line"/>
      <point x="1319" y="1481" type="line"/>
      <point x="1193" y="1481" type="line"/>
      <point x="1193" y="501" type="line"/>
      <point x="1201" y="194" type="line"/>
      <point x="1225" y="163"/>
      <point x="185" y="1481"/>
      <point x="185" y="1481" type="curve"/>
      <point x="124" y="1481" type="line"/>
    </contour>
  </outline>
</glyph>
<glyph name="O" format="1">
  <advance width="1556"/>
  <unicode hex="004F"/>
  <outline>
    <contour>
      <point x="777" y="81" type="curve" smooth="yes"/>
      <point x="340" y="81"/>
      <point x="220" y="406"/>
      <point x="220" y="740" type="curve" smooth="yes"/>
      <point x="220" y="1041"/>
      <point x="336" y="1398"/>
      <point x="777" y="1398" type="curve" smooth="yes"/>
      <point x="1203" y="1398"/>
      <point x="1332" y="1069"/>
      <point x="1332" y="740" type="curve" smooth="yes"/>
      <point x="1332" y="399"/>
      <point x="1200" y="81"/>
    </contour>
    <contour>
      <point x="777" y="-23" type="curve" smooth="yes"/>
      <point x="1240" y="-23"/>
      <point x="1464" y="289"/>
      <point x="1464" y="740" type="curve" smooth="yes"/>
      <point x="1464" y="1198"/>
      <point x="1239" y="1503"/>
      <point x="777" y="1503" type="curve" smooth="yes"/>
      <point x="315" y="1503"/>
      <point x="92" y="1197"/>
      <point x="92" y="740" type="curve" smooth="yes"/>
      <point x="92" y="286"/>
      <point x="314" y="-23"/>
    </contour>
  </outline>
</glyph>
<glyph name="Q" format="1">
  <advance width="1556"/>
  <unicode hex="0051"/>
  <outline>
    <contour>
      <point x="962" y="-411" type="line"/>
      <point x="1084" y="-373" type="line"/>
      <point x="926" y="151" type="line"/>
      <point x="925" y="152"/>
      <point x="801" y="151"/>
      <point x="801" y="151" type="curve"/>
    </contour>
    <component base="O"/>
  </outline>
</glyph>
<glyph name="U" format="1">
  <advance width="1454"/>
  <unicode hex="0055"/>
  <outline>
    <contour>
      <point x="725" y="-23" type="curve" smooth="yes"/>
      <point x="1075" y="-23"/>
      <point x="1346" y="126"/>
      <point x="1346" y="480" type="curve" smooth="yes"/>
      <point x="1346" y="1481" type="line"/>
      <point x="1219" y="1481" type="line"/>
      <point x="1219" y="484" type="line" smooth="yes"/>
      <point x="1219" y="210"/>
      <point x="1043" y="72"/>
      <point x="723" y="72" type="curve" smooth="yes"/>
      <point x="405" y="72"/>
      <point x="235" y="211"/>
      <point x="235" y="485" type="curve" smooth="yes"/>
      <point x="235" y="1481" type="line"/>
      <point x="108" y="1481" type="line"/>
      <point x="108" y="480" type="line" smooth="yes"/>
      <point x="108" y="130"/>
      <point x="387" y="-23"/>
    </contour>
  </outline>
</glyph>
<glyph name="V" format="1">
  <advance width="1272"/>
  <unicode hex="0056"/>
  <outline>
    <contour>
      <point x="523" y="0" type="line"/>
      <point x="755" y="0" type="line"/>
      <point x="1290" y="1481" type="line"/>
      <point x="1161" y="1481" type="line"/>
      <point x="946" y="876"/>
      <point x="1037" y="1120"/>
      <point x="822" y="516" type="curve"/>
      <point x="747" y="304"/>
      <point x="718" y="228"/>
      <point x="639" y="19" type="curve"/>
      <point x="640" y="19" type="line"/>
      <point x="562" y="230"/>
      <point x="534" y="304"/>
      <point x="456" y="514" type="curve"/>
      <point x="238" y="1123"/>
      <point x="324" y="874"/>
      <point x="104" y="1481" type="curve"/>
      <point x="-20" y="1481" type="line"/>
    </contour>
  </outline>
</glyph>
<glyph name="W" format="1">
  <advance width="1939"/>
  <unicode hex="0057"/>
  <outline>
    <contour>
      <point x="417" y="0" type="line"/>
      <point x="530" y="0" type="line"/>
      <point x="984" y="1476" type="line"/>
      <point x="1392" y="0" type="line"/>
      <point x="1505" y="0" type="line"/>
      <point x="1921" y="1481" type="line"/>
      <point x="1809" y="1481" type="line"/>
      <point x="1654" y="906"/>
      <point x="1666" y="968"/>
      <point x="1511" y="394" type="curve"/>
      <point x="1475" y="259"/>
      <point x="1498" y="347"/>
      <point x="1462" y="212" type="curve"/>
      <point x="1424" y="347"/>
      <point x="1454" y="248"/>
      <point x="1416" y="383" type="curve"/>
      <point x="1248" y="960"/>
      <point x="1261" y="908"/>
      <point x="1091" y="1481" type="curve"/>
      <point x="863" y="1481" type="line"/>
      <point x="692" y="910"/>
      <point x="709" y="972"/>
      <point x="538" y="399" type="curve"/>
      <point x="497" y="261"/>
      <point x="524" y="350"/>
      <point x="483" y="211" type="curve"/>
      <point x="480" y="211" type="line"/>
      <point x="442" y="350"/>
      <point x="464" y="257"/>
      <point x="428" y="396" type="curve"/>
      <point x="275" y="967"/>
      <point x="284" y="910"/>
      <point x="131" y="1481" type="curve"/>
      <point x="17" y="1481" type="line"/>
    </contour>
  </outline>
</glyph>
<glyph name="X" format="1">
  <advance width="1390"/>
  <unicode hex="0058"/>
  <outline>
    <contour>
      <point x="17" y="0" type="line"/>
      <point x="163" y="0" type="line"/>
      <point x="364" y="261"/>
      <point x="301" y="169"/>
      <point x="503" y="429" type="curve"/>
      <point x="589" y="540"/>
      <point x="600" y="549"/>
      <point x="689" y="659" type="curve"/>
      <point x="770" y="547"/>
      <point x="780" y="544"/>
      <point x="863" y="433" type="curve"/>
      <point x="1057" y="172"/>
      <point x="1012" y="263"/>
      <point x="1207" y="0" type="curve"/>
      <point x="1329" y="0" type="line"/>
      <point x="759" y="711" type="line"/>
      <point x="1372" y="1481" type="line"/>
      <point x="1227" y="1481" type="line"/>
      <point x="1009" y="1196"/>
      <point x="1072" y="1281"/>
      <point x="856" y="997" type="curve"/>
      <point x="784" y="901"/>
      <point x="765" y="882"/>
      <point x="691" y="790" type="curve"/>
      <point x="617" y="882"/>
      <point x="606" y="901"/>
      <point x="534" y="997" type="curve"/>
      <point x="318" y="1281"/>
      <point x="172" y="1481"/>
      <point x="172" y="1481" type="curve"/>
      <point x="51" y="1481" type="line"/>
      <point x="619" y="737" type="line"/>
    </contour>
  </outline>
</glyph>
<glyph name="Y" format="1">
  <advance width="1296"/>
  <unicode hex="0059"/>
  <outline>
    <contour>
      <point x="572" y="0" type="line"/>
      <point x="698" y="0" type="line"/>
      <point x="698" y="702" type="line"/>
      <point x="1330" y="1481" type="line"/>
      <point x="1193" y="1481" type="line"/>
      <point x="627" y="803" type="line"/>
      <point x="88" y="1481" type="line"/>
      <point x="-35" y="1481" type="line"/>
      <point x="572" y="706" type="line"/>
    </contour>
  </outline>
</glyph>
<glyph name="bracketleft" format="1">
  <advance width="573"/>
  <unicode hex="005B"/>
  <outline>
    <contour>
      <point x="103" y="-167" type="line"/>
      <point x="485" y="-167" type="line"/>
      <point x="485" y="-74" type="line"/>
      <point x="229" y="-74" type="line"/>
      <point x="229" y="1386" type="line"/>
      <point x="485" y="1386" type="line"/>
      <point x="485" y="1481" type="line"/>
      <point x="103" y="1481" type="line"/>
    </contour>
  </outline>
</glyph>
<glyph name="backslash" format="1">
  <advance width="872"/>
  <unicode hex="005C"/>
  <outline>
    <contour>
      <point x="842" y="0" type="line"/>
      <point x="920" y="0" type="line"/>
      <point x="25" y="1481" type="line"/>
      <point x="-55" y="1481" type="line"/>
    </contour>
  </outline>
</glyph>
<glyph name="bracketright" format="1">
  <advance width="574"/>
  <unicode hex="005D"/>
  <outline>
    <contour>
      <point x="88" y="-167" type="line"/>
      <point x="472" y="-167" type="line"/>
      <point x="472" y="1481" type="line"/>
      <point x="88" y="1481" type="line"/>
      <point x="88" y="1386" type="line"/>
      <point x="344" y="1386" type="line"/>
      <point x="344" y="-74" type="line"/>
      <point x="88" y="-74" type="line"/>
    </contour>
  </outline>
</glyph>
<glyph name="asciicircum" format="1">
  <advance width="1389"/>
  <unicode hex="005E"/>
  <outline>
    <contour>
      <point x="91" y="596" type="line"/>
      <point x="276" y="596" type="line"/>
      <point x="681" y="1320" type="line"/>
      <point x="1095" y="599" type="line"/>
      <point x="1299" y="599" type="line"/>
      <point x="796" y="1384" type="line"/>
      <point x="565" y="1384" type="line"/>
    </contour>
  </outline>
</glyph>
<glyph name="grave" format="1">
  <advance width="286"/>
  <unicode hex="0060"/>
  <outline>
    <contour>
      <point x="212" y="1110" type="line"/>
      <point x="303" y="1110" type="line"/>
      <point x="67" y="1452" type="line"/>
      <point x="-10" y="1452" type="line"/>
    </contour>
  </outline>
</glyph>
<glyph name="a" format="1">
  <advance width="1040"/>
  <unicode hex="0061"/>
  <outline>
    <contour>
      <point x="406" y="-19" type="curve" smooth="yes"/>
      <point x="603" y="-19"/>
      <point x="724" y="92"/>
      <point x="792" y="275" type="curve"/>
      <point x="792" y="0" type="line"/>
      <point x="921" y="0" type="line"/>
      <point x="921" y="582" type="line" smooth="yes"/>
      <point x="921" y="834"/>
      <point x="869" y="1057"/>
      <point x="531" y="1057" type="curve" smooth="yes"/>
      <point x="309" y="1057"/>
      <point x="135" y="979"/>
      <point x="144" y="991" type="curve"/>
      <point x="169" y="885" type="line"/>
      <point x="129" y="874"/>
      <point x="321" y="956"/>
      <point x="545" y="956" type="curve" smooth="yes"/>
      <point x="724" y="956"/>
      <point x="792" y="879"/>
      <point x="792" y="616" type="curve"/>
      <point x="293" y="616"/>
      <point x="80" y="549"/>
      <point x="80" y="263" type="curve"/>
      <point x="84" y="89"/>
      <point x="214" y="-19"/>
    </contour>
    <contour>
      <point x="406" y="81" type="curve" smooth="yes"/>
      <point x="312" y="81"/>
      <point x="194" y="146"/>
      <point x="194" y="253" type="curve" smooth="yes"/>
      <point x="194" y="396"/>
      <point x="255" y="531"/>
      <point x="792" y="522" type="curve"/>
      <point x="792" y="291"/>
      <point x="649" y="81"/>
    </contour>
  </outline>
</glyph>
<glyph name="b" format="1">
  <advance width="1153"/>
  <unicode hex="0062"/>
  <outline>
    <contour>
      <point x="556" y="-32" type="curve" smooth="yes"/>
      <point x="830" y="-32"/>
      <point x="1045" y="158"/>
      <point x="1045" y="527" type="curve" smooth="yes"/>
      <point x="1045" y="912"/>
      <point x="826" y="1050"/>
      <point x="601" y="1050" type="curve" smooth="yes"/>
      <point x="498" y="1050"/>
      <point x="301" y="967"/>
      <point x="254" y="849" type="curve"/>
      <point x="254" y="1428" type="line"/>
      <point x="126" y="1428" type="line"/>
      <point x="126" y="0" type="line"/>
      <point x="254" y="0" type="line"/>
      <point x="254" y="110" type="line"/>
      <point x="319" y="14"/>
      <point x="438" y="-32"/>
    </contour>
    <contour>
      <point x="568" y="78" type="curve" smooth="yes"/>
      <point x="440" y="78"/>
      <point x="341" y="127"/>
      <point x="254" y="182" type="curve"/>
      <point x="254" y="713" type="line"/>
      <point x="261" y="784"/>
      <point x="425" y="958"/>
      <point x="613" y="958" type="curve" smooth="yes"/>
      <point x="810" y="958"/>
      <point x="924" y="779"/>
      <point x="924" y="502" type="curve" smooth="yes"/>
      <point x="924" y="259"/>
      <point x="806" y="78"/>
    </contour>
  </outline>
</glyph>
<glyph name="c" format="1">
  <advance width="1034"/>
  <unicode hex="0063"/>
  <outline>
    <contour>
      <point x="630" y="-19" type="curve" smooth="yes"/>
      <point x="771" y="-19"/>
      <point x="888" y="22"/>
      <point x="941" y="64" type="curve"/>
      <point x="912" y="155" type="line"/>
      <point x="899" y="150"/>
      <point x="761" y="82"/>
      <point x="620" y="82" type="curve" smooth="yes"/>
      <point x="375" y="82"/>
      <point x="226" y="268"/>
      <point x="226" y="510" type="curve" smooth="yes"/>
      <point x="226" y="763"/>
      <point x="374" y="955"/>
      <point x="610" y="955" type="curve" smooth="yes"/>
      <point x="797" y="955"/>
      <point x="927" y="868"/>
      <point x="921" y="879" type="curve"/>
      <point x="954" y="971" type="line"/>
      <point x="837" y="1035"/>
      <point x="726" y="1055"/>
      <point x="605" y="1055" type="curve" smooth="yes"/>
      <point x="330" y="1055"/>
      <point x="105" y="853"/>
      <point x="105" y="511" type="curve" smooth="yes"/>
      <point x="105" y="146"/>
      <point x="324" y="-19"/>
    </contour>
  </outline>
</glyph>
<glyph name="d" format="1">
  <advance width="1156"/>
  <unicode hex="0064"/>
  <outline>
    <contour>
      <point x="557" y="-36" type="curve"/>
      <point x="691" y="-23"/>
      <point x="854" y="36"/>
      <point x="902" y="158" type="curve"/>
      <point x="902" y="0" type="line"/>
      <point x="1028" y="0" type="line"/>
      <point x="1028" y="1428" type="line"/>
      <point x="902" y="1428" type="line"/>
      <point x="902" y="853" type="line"/>
      <point x="822" y="1027"/>
      <point x="646" y="1046"/>
      <point x="542" y="1046" type="curve" smooth="yes"/>
      <point x="331" y="1046"/>
      <point x="105" y="857"/>
      <point x="105" y="496" type="curve" smooth="yes"/>
      <point x="105" y="103"/>
      <point x="345" y="-36"/>
    </contour>
    <contour>
      <point x="566" y="73" type="curve" smooth="yes"/>
      <point x="325" y="73"/>
      <point x="226" y="256"/>
      <point x="226" y="514" type="curve" smooth="yes"/>
      <point x="226" y="835"/>
      <point x="414" y="944"/>
      <point x="582" y="944" type="curve" smooth="yes"/>
      <point x="781" y="944"/>
      <point x="928" y="819"/>
      <point x="902" y="761" type="curve"/>
      <point x="902" y="266" type="line"/>
      <point x="913" y="211"/>
      <point x="782" y="73"/>
    </contour>
  </outline>
</glyph>
<glyph name="e" format="1">
  <advance width="1124"/>
  <unicode hex="0065"/>
  <outline>
    <contour>
      <point x="624" y="-19" type="curve" smooth="yes"/>
      <point x="866" y="-19"/>
      <point x="977" y="80"/>
      <point x="995" y="104" type="curve"/>
      <point x="952" y="212" type="line"/>
      <point x="957" y="212" type="line"/>
      <point x="893" y="143"/>
      <point x="753" y="90"/>
      <point x="631" y="90" type="curve" smooth="yes"/>
      <point x="413" y="90"/>
      <point x="239" y="239"/>
      <point x="225" y="476" type="curve"/>
      <point x="1021" y="476" type="line"/>
      <point x="1021" y="492" type="line" smooth="yes"/>
      <point x="1021" y="769"/>
      <point x="898" y="1055"/>
      <point x="589" y="1055" type="curve" smooth="yes"/>
      <point x="333" y="1055"/>
      <point x="105" y="849"/>
      <point x="105" y="508" type="curve" smooth="yes"/>
      <point x="105" y="145"/>
      <point x="357" y="-19"/>
    </contour>
    <contour>
      <point x="228" y="581" type="line"/>
      <point x="247" y="796"/>
      <point x="398" y="947"/>
      <point x="589" y="947" type="curve"/>
      <point x="835" y="947"/>
      <point x="883" y="701"/>
      <point x="888" y="581" type="curve"/>
    </contour>
  </outline>
</glyph>
<glyph name="f" format="1">
  <advance width="655"/>
  <unicode hex="0066"/>
  <outline>
    <contour>
      <point x="195" y="0" type="line"/>
      <point x="323" y="0" type="line"/>
      <point x="323" y="941" type="line"/>
      <point x="615" y="941" type="line"/>
      <point x="615" y="1028" type="line"/>
      <point x="331" y="1028" type="line"/>
      <point x="331" y="1277"/>
      <point x="366" y="1315"/>
      <point x="530" y="1315" type="curve" smooth="yes"/>
      <point x="554" y="1315"/>
      <point x="605" y="1305"/>
      <point x="605" y="1305" type="curve"/>
      <point x="605" y="1414" type="line"/>
      <point x="552" y="1420"/>
      <point x="590" y="1424"/>
      <point x="516" y="1424" type="curve" smooth="yes"/>
      <point x="250" y="1424"/>
      <point x="195" y="1313"/>
      <point x="195" y="1064" type="curve" smooth="yes"/>
      <point x="195" y="1028" type="line"/>
      <point x="2" y="1028" type="line"/>
      <point x="2" y="941" type="line"/>
      <point x="195" y="941" type="line"/>
    </contour>
  </outline>
</glyph>
<glyph name="g" format="1">
  <advance width="1162"/>
  <unicode hex="0067"/>
  <outline>
    <contour>
      <point x="549" y="-391" type="curve" smooth="yes"/>
      <point x="909" y="-391"/>
      <point x="1031" y="-259"/>
      <point x="1031" y="163" type="curve" smooth="yes"/>
      <point x="1031" y="1028" type="line"/>
      <point x="902" y="1028" type="line"/>
      <point x="902" y="834" type="line"/>
      <point x="822" y="959"/>
      <point x="698" y="1049"/>
      <point x="563" y="1049" type="curve" smooth="yes"/>
      <point x="287" y="1049"/>
      <point x="105" y="850"/>
      <point x="105" y="488" type="curve" smooth="yes"/>
      <point x="105" y="152"/>
      <point x="296" y="-54"/>
      <point x="549" y="-54" type="curve" smooth="yes"/>
      <point x="684" y="-54"/>
      <point x="817" y="-8"/>
      <point x="896" y="109" type="curve"/>
      <point x="896" y="116"/>
      <point x="896" y="19"/>
      <point x="896" y="25" type="curve" smooth="yes"/>
      <point x="899" y="-207"/>
      <point x="808" y="-296"/>
      <point x="579" y="-296" type="curve" smooth="yes"/>
      <point x="408" y="-296"/>
      <point x="296" y="-219"/>
      <point x="296" y="-219" type="curve"/>
      <point x="265" y="-323" type="line"/>
      <point x="189" y="-283"/>
      <point x="328" y="-391"/>
    </contour>
    <contour>
      <point x="544" y="39" type="curve" smooth="yes"/>
      <point x="322" y="39"/>
      <point x="226" y="260"/>
      <point x="226" y="491" type="curve" smooth="yes"/>
      <point x="226" y="663"/>
      <point x="240" y="944"/>
      <point x="556" y="944" type="curve" smooth="yes"/>
      <point x="621" y="944"/>
      <point x="805" y="902"/>
      <point x="902" y="742" type="curve"/>
      <point x="902" y="211" type="line"/>
      <point x="799" y="72"/>
      <point x="660" y="39"/>
    </contour>
  </outline>
</glyph>
<glyph name="h" format="1">
  <advance width="1144"/>
  <unicode hex="0068"/>
  <outline>
    <contour>
      <point x="126" y="0" type="line"/>
      <point x="254" y="0" type="line"/>
      <point x="254" y="749" type="line" smooth="yes"/>
      <point x="254" y="791"/>
      <point x="419" y="963"/>
      <point x="655" y="963" type="curve" smooth="yes"/>
      <point x="748" y="963"/>
      <point x="902" y="913"/>
      <point x="902" y="752" type="curve" smooth="yes"/>
      <point x="902" y="0" type="line"/>
      <point x="1030" y="0" type="line"/>
      <point x="1030" y="690" type="line" smooth="yes"/>
      <point x="1030" y="933"/>
      <point x="885" y="1057"/>
      <point x="666" y="1057" type="curve" smooth="yes"/>
      <point x="524" y="1057"/>
      <point x="358" y="986"/>
      <point x="254" y="854" type="curve"/>
      <point x="254" y="1389" type="line"/>
      <point x="126" y="1389" type="line"/>
    </contour>
  </outline>
</glyph>
<glyph name="i" format="1">
  <advance width="475"/>
  <unicode hex="0069"/>
  <outline>
    <contour>
      <point x="164" y="0" type="line"/>
      <point x="293" y="0" type="line"/>
      <point x="293" y="1032" type="line"/>
      <point x="164" y="1032" type="line"/>
    </contour>
    <contour>
      <point x="240" y="1221" type="curve" smooth="yes"/>
      <point x="311" y="1221"/>
      <point x="341" y="1272"/>
      <point x="341" y="1323" type="curve" smooth="yes"/>
      <point x="341" y="1374"/>
      <point x="310" y="1426"/>
      <point x="240" y="1426" type="curve" smooth="yes"/>
      <point x="167" y="1426"/>
      <point x="137" y="1375"/>
      <point x="137" y="1323" type="curve" smooth="yes"/>
      <point x="137" y="1272"/>
      <point x="169" y="1221"/>
    </contour>
  </outline>
</glyph>
<glyph name="j" format="1">
  <advance width="494"/>
  <unicode hex="006A"/>
  <outline>
    <contour>
      <point x="102" y="-368" type="curve" smooth="yes"/>
      <point x="332" y="-368"/>
      <point x="326" y="-190"/>
      <point x="326" y="26" type="curve" smooth="yes"/>
      <point x="326" y="1032" type="line"/>
      <point x="197" y="1032" type="line"/>
      <point x="197" y="-34" type="line" smooth="yes"/>
      <point x="197" y="-246"/>
      <point x="148" y="-256"/>
      <point x="62" y="-256" type="curve" smooth="yes"/>
      <point x="31" y="-256"/>
      <point x="-69" y="-252"/>
      <point x="-40" y="-254" type="curve"/>
      <point x="-40" y="-362" type="line"/>
      <point x="-66" y="-360"/>
      <point x="0" y="-368"/>
    </contour>
    <contour>
      <point x="275" y="1221" type="curve" smooth="yes"/>
      <point x="344" y="1221"/>
      <point x="377" y="1274"/>
      <point x="377" y="1325" type="curve" smooth="yes"/>
      <point x="377" y="1376"/>
      <point x="345" y="1428"/>
      <point x="275" y="1428" type="curve" smooth="yes"/>
      <point x="201" y="1428"/>
      <point x="171" y="1377"/>
      <point x="171" y="1323" type="curve" smooth="yes"/>
      <point x="171" y="1276"/>
      <point x="204" y="1221"/>
    </contour>
  </outline>
</glyph>
<glyph name="k" format="1">
  <advance width="1036"/>
  <unicode hex="006B"/>
  <outline>
    <contour>
      <point x="115" y="0" type="line"/>
      <point x="243" y="0" type="line"/>
      <point x="243" y="443" type="line"/>
      <point x="416" y="568" type="line"/>
      <point x="897" y="0" type="line"/>
      <point x="1037" y="0" type="line"/>
      <point x="1037" y="42" type="line"/>
      <point x="511" y="612" type="line"/>
      <point x="990" y="988" type="line"/>
      <point x="990" y="1032" type="line"/>
      <point x="837" y="1032" type="line"/>
      <point x="243" y="570" type="line"/>
      <point x="243" y="1426" type="line"/>
      <point x="115" y="1426" type="line"/>
    </contour>
  </outline>
</glyph>
<glyph name="l" format="1">
  <advance width="545"/>
  <unicode hex="006C"/>
  <outline>
    <contour>
      <point x="435" y="-11" type="curve" smooth="yes"/>
      <point x="517" y="-11" type="line"/>
      <point x="517" y="93" type="line"/>
      <point x="279" y="93"/>
      <point x="279" y="152"/>
      <point x="279" y="319" type="curve" smooth="yes"/>
      <point x="279" y="1428" type="line"/>
      <point x="150" y="1428" type="line"/>
      <point x="150" y="285" type="line" smooth="yes"/>
      <point x="150" y="75"/>
      <point x="191" y="-11"/>
    </contour>
  </outline>
</glyph>
<glyph name="m" format="1">
  <advance width="1662"/>
  <unicode hex="006D"/>
  <outline>
    <contour>
      <point x="126" y="0" type="line"/>
      <point x="254" y="0" type="line"/>
      <point x="254" y="756" type="line"/>
      <point x="297" y="821"/>
      <point x="428" y="963"/>
      <point x="587" y="963" type="curve" smooth="yes"/>
      <point x="684" y="963"/>
      <point x="774" y="874"/>
      <point x="774" y="716" type="curve" smooth="yes"/>
      <point x="774" y="0" type="line"/>
      <point x="902" y="0" type="line"/>
      <point x="902" y="780" type="line" smooth="yes"/>
      <point x="902" y="817"/>
      <point x="1069" y="963"/>
      <point x="1227" y="963" type="curve" smooth="yes"/>
      <point x="1350" y="963"/>
      <point x="1421" y="875"/>
      <point x="1421" y="692" type="curve" smooth="yes"/>
      <point x="1421" y="0" type="line"/>
      <point x="1550" y="0" type="line"/>
      <point x="1550" y="681" type="line" smooth="yes"/>
      <point x="1548" y="939"/>
      <point x="1415" y="1057"/>
      <point x="1240" y="1057" type="curve" smooth="yes"/>
      <point x="1120" y="1057"/>
      <point x="965" y="1007"/>
      <point x="876" y="887" type="curve"/>
      <point x="831" y="1026"/>
      <point x="721" y="1057"/>
      <point x="606" y="1057" type="curve" smooth="yes"/>
      <point x="453" y="1057"/>
      <point x="318" y="960"/>
      <point x="254" y="867" type="curve"/>
      <point x="254" y="1032" type="line"/>
      <point x="126" y="1032" type="line"/>
    </contour>
  </outline>
</glyph>
<glyph name="o" format="1">
  <advance width="1194"/>
  <unicode hex="006F"/>
  <outline>
    <contour>
      <point x="595" y="82" type="curve" smooth="yes"/>
      <point x="382" y="82"/>
      <point x="226" y="274"/>
      <point x="226" y="525" type="curve" smooth="yes"/>
      <point x="226" y="791"/>
      <point x="394" y="956"/>
      <point x="594" y="956" type="curve" smooth="yes"/>
      <point x="817" y="956"/>
      <point x="964" y="789"/>
      <point x="964" y="527" type="curve" smooth="yes"/>
      <point x="964" y="285"/>
      <point x="832" y="82"/>
    </contour>
    <contour>
      <point x="594" y="-19" type="curve" smooth="yes"/>
      <point x="826" y="-19"/>
      <point x="1089" y="127"/>
      <point x="1089" y="524" type="curve" smooth="yes"/>
      <point x="1089" y="926"/>
      <point x="826" y="1057"/>
      <point x="594" y="1057" type="curve" smooth="yes"/>
      <point x="382" y="1057"/>
      <point x="105" y="924"/>
      <point x="105" y="524" type="curve" smooth="yes"/>
      <point x="105" y="122"/>
      <point x="366" y="-19"/>
    </contour>
  </outline>
</glyph>
<glyph name="p" format="1">
  <advance width="1155"/>
  <unicode hex="0070"/>
  <outline>
    <contour>
      <point x="126" y="-386" type="line"/>
      <point x="254" y="-386" type="line"/>
      <point x="254" y="135" type="line"/>
      <point x="356" y="1"/>
      <point x="478" y="-17"/>
      <point x="612" y="-17" type="curve" smooth="yes"/>
      <point x="851" y="-17"/>
      <point x="1049" y="156"/>
      <point x="1049" y="506" type="curve" smooth="yes"/>
      <point x="1049" y="876"/>
      <point x="871" y="1051"/>
      <point x="601" y="1051" type="curve" smooth="yes"/>
      <point x="475" y="1051"/>
      <point x="336" y="982"/>
      <point x="254" y="847" type="curve"/>
      <point x="254" y="1032" type="line"/>
      <point x="126" y="1032" type="line"/>
    </contour>
    <contour>
      <point x="587" y="78" type="curve" smooth="yes"/>
      <point x="539" y="78"/>
      <point x="336" y="100"/>
      <point x="254" y="245" type="curve"/>
      <point x="254" y="757" type="line"/>
      <point x="341" y="893"/>
      <point x="499" y="958"/>
      <point x="612" y="958" type="curve" smooth="yes"/>
      <point x="862" y="958"/>
      <point x="918" y="723"/>
      <point x="918" y="508" type="curve" smooth="yes"/>
      <point x="918" y="199"/>
      <point x="775" y="78"/>
    </contour>
  </outline>
</glyph>
<glyph name="q" format="1">
  <advance width="1149"/>
  <unicode hex="0071"/>
  <outline>
    <contour>
      <point x="894" y="-386" type="line"/>
      <point x="1023" y="-386" type="line"/>
      <point x="1023" y="1032" type="line"/>
      <point x="894" y="1032" type="line"/>
      <point x="894" y="869" type="line"/>
      <point x="818" y="1006"/>
      <point x="681" y="1051"/>
      <point x="556" y="1051" type="curve" smooth="yes"/>
      <point x="295" y="1051"/>
      <point x="105" y="881"/>
      <point x="105" y="550" type="curve" smooth="yes"/>
      <point x="105" y="165"/>
      <point x="314" y="-19"/>
      <point x="576" y="-19" type="curve" smooth="yes"/>
      <point x="707" y="-19"/>
      <point x="820" y="26"/>
      <point x="894" y="111" type="curve"/>
    </contour>
    <contour>
      <point x="555" y="70" type="curve" smooth="yes"/>
      <point x="328" y="70"/>
      <point x="235" y="248"/>
      <point x="235" y="521" type="curve" smooth="yes"/>
      <point x="235" y="734"/>
      <point x="255" y="944"/>
      <point x="538" y="944" type="curve" smooth="yes"/>
      <point x="632" y="944"/>
      <point x="813" y="903"/>
      <point x="894" y="758" type="curve"/>
      <point x="894" y="246" type="line"/>
      <point x="788" y="100"/>
      <point x="609" y="70"/>
    </contour>
  </outline>
</glyph>
<glyph name="r" format="1">
  <advance width="648"/>
  <unicode hex="0072"/>
  <outline>
    <contour>
      <point x="126" y="0" type="line"/>
      <point x="254" y="0" type="line"/>
      <point x="254" y="814" type="line"/>
      <point x="354" y="900"/>
      <point x="444" y="927"/>
      <point x="536" y="927" type="curve" smooth="yes"/>
      <point x="586" y="927"/>
      <point x="626" y="921"/>
      <point x="647" y="912" type="curve"/>
      <point x="654" y="1015" type="line"/>
      <point x="629" y="1028"/>
      <point x="586" y="1035"/>
      <point x="550" y="1035" type="curve" smooth="yes"/>
      <point x="423" y="1035"/>
      <point x="311" y="969"/>
      <point x="255" y="904" type="curve"/>
      <point x="254" y="904" type="line"/>
      <point x="254" y="1032" type="line"/>
      <point x="126" y="1032" type="line"/>
    </contour>
  </outline>
</glyph>
<glyph name="s" format="1">
  <advance width="965"/>
  <unicode hex="0073"/>
  <outline>
    <contour>
      <point x="476" y="-19" type="curve"/>
      <point x="741" y="-19"/>
      <point x="861" y="87"/>
      <point x="861" y="278" type="curve" smooth="yes"/>
      <point x="861" y="457"/>
      <point x="763" y="538"/>
      <point x="516" y="591" type="curve" smooth="yes"/>
      <point x="258" y="642"/>
      <point x="214" y="684"/>
      <point x="214" y="778" type="curve" smooth="yes"/>
      <point x="214" y="934"/>
      <point x="387" y="957"/>
      <point x="490" y="957" type="curve" smooth="yes"/>
      <point x="603" y="957"/>
      <point x="714" y="915"/>
      <point x="768" y="896" type="curve"/>
      <point x="802" y="896" type="line"/>
      <point x="806" y="974" type="line"/>
      <point x="691" y="1024"/>
      <point x="639" y="1053"/>
      <point x="467" y="1053" type="curve" smooth="yes"/>
      <point x="225" y="1053"/>
      <point x="91" y="959"/>
      <point x="91" y="781" type="curve" smooth="yes"/>
      <point x="91" y="578"/>
      <point x="281" y="537"/>
      <point x="490" y="491" type="curve" smooth="yes"/>
      <point x="713" y="442"/>
      <point x="755" y="371"/>
      <point x="755" y="278" type="curve" smooth="yes"/>
      <point x="755" y="128"/>
      <point x="622" y="74"/>
      <point x="484" y="74" type="curve" smooth="yes"/>
      <point x="333" y="74"/>
      <point x="213" y="124"/>
      <point x="136" y="156" type="curve"/>
      <point x="118" y="156" type="line"/>
      <point x="96" y="71" type="line"/>
      <point x="200" y="7"/>
      <point x="344" y="-19"/>
    </contour>
  </outline>
</glyph>
<glyph name="t" format="1">
  <advance width="734"/>
  <unicode hex="0074"/>
  <outline>
    <contour>
      <point x="506" y="-13" type="curve" smooth="yes"/>
      <point x="551" y="-13"/>
      <point x="590" y="-8"/>
      <point x="657" y="5" type="curve"/>
      <point x="657" y="93" type="line"/>
      <point x="657" y="94"/>
      <point x="552" y="79"/>
      <point x="503" y="79" type="curve" smooth="yes"/>
      <point x="374" y="79"/>
      <point x="317" y="154"/>
      <point x="317" y="319" type="curve" smooth="yes"/>
      <point x="317" y="941" type="line"/>
      <point x="657" y="941" type="line"/>
      <point x="657" y="1032" type="line"/>
      <point x="317" y="1032" type="line"/>
      <point x="317" y="1349" type="line"/>
      <point x="189" y="1316" type="line"/>
      <point x="189" y="1032" type="line"/>
      <point x="31" y="1032" type="line"/>
      <point x="31" y="941" type="line"/>
      <point x="189" y="941" type="line"/>
      <point x="189" y="328" type="line" smooth="yes"/>
      <point x="189" y="91"/>
      <point x="259" y="-13"/>
    </contour>
  </outline>
</glyph>
<glyph name="u" format="1">
  <advance width="1147"/>
  <unicode hex="0075"/>
  <outline>
    <contour>
      <point x="484" y="-19" type="curve" smooth="yes"/>
      <point x="626" y="-19"/>
      <point x="793" y="23"/>
      <point x="892" y="177" type="curve"/>
      <point x="892" y="0" type="line"/>
      <point x="1021" y="0" type="line"/>
      <point x="1021" y="1032" type="line"/>
      <point x="892" y="1032" type="line"/>
      <point x="892" y="304" type="line"/>
      <point x="855" y="232"/>
      <point x="743" y="65"/>
      <point x="468" y="65" type="curve" smooth="yes"/>
      <point x="375" y="65"/>
      <point x="240" y="135"/>
      <point x="240" y="296" type="curve" smooth="yes"/>
      <point x="240" y="1032" type="line"/>
      <point x="112" y="1032" type="line"/>
      <point x="112" y="338" type="line" smooth="yes"/>
      <point x="112" y="95"/>
      <point x="264" y="-19"/>
    </contour>
  </outline>
</glyph>
<glyph name="v" format="1">
  <advance width="1058"/>
  <unicode hex="0076"/>
  <outline>
    <contour>
      <point x="441" y="0" type="line"/>
      <point x="625" y="0" type="line"/>
      <point x="1035" y="1032" type="line"/>
      <point x="892" y="1032" type="line"/>
      <point x="587" y="179" type="line"/>
      <point x="556" y="95"/>
      <point x="569" y="134"/>
      <point x="539" y="49" type="curve"/>
      <point x="536" y="49" type="line"/>
      <point x="504" y="134"/>
      <point x="518" y="95"/>
      <point x="486" y="179" type="curve"/>
      <point x="152" y="1032" type="line"/>
      <point x="19" y="1032" type="line"/>
    </contour>
  </outline>
</glyph>
<glyph name="w" format="1">
  <advance width="1567"/>
  <unicode hex="0077"/>
  <outline>
    <contour>
      <point x="363" y="0" type="line"/>
      <point x="526" y="0" type="line"/>
      <point x="796" y="983" type="line"/>
      <point x="799" y="983" type="line"/>
      <point x="1050" y="0" type="line"/>
      <point x="1202" y="0" type="line"/>
      <point x="1499" y="1032" type="line"/>
      <point x="1381" y="1032" type="line"/>
      <point x="1271" y="625"/>
      <point x="1296" y="722"/>
      <point x="1187" y="302" type="curve"/>
      <point x="1160" y="203"/>
      <point x="1162" y="213"/>
      <point x="1135" y="116" type="curve"/>
      <point x="1110" y="213"/>
      <point x="1114" y="204"/>
      <point x="1087" y="303" type="curve"/>
      <point x="975" y="727"/>
      <point x="883" y="1032"/>
      <point x="883" y="1032" type="curve"/>
      <point x="693" y="1032" type="line"/>
      <point x="693" y="1032"/>
      <point x="600" y="716"/>
      <point x="488" y="291" type="curve"/>
      <point x="461" y="190"/>
      <point x="464" y="203"/>
      <point x="439" y="104" type="curve"/>
      <point x="438" y="104" type="line"/>
      <point x="411" y="203"/>
      <point x="416" y="188"/>
      <point x="389" y="289" type="curve"/>
      <point x="274" y="714"/>
      <point x="285" y="619"/>
      <point x="172" y="1032" type="curve"/>
      <point x="67" y="1032" type="line"/>
    </contour>
  </outline>
</glyph>
<glyph name="x" format="1">
  <advance width="1144"/>
  <unicode hex="0078"/>
  <outline>
    <contour>
      <point x="62" y="0" type="line"/>
      <point x="218" y="0" type="line"/>
      <point x="516" y="368" type="line"/>
      <point x="574" y="429" type="line"/>
      <point x="604" y="391"/>
      <point x="592" y="406"/>
      <point x="621" y="368" type="curve" smooth="yes"/>
      <point x="782" y="167"/>
      <point x="766" y="202"/>
      <point x="928" y="0" type="curve"/>
      <point x="1080" y="0" type="line"/>
      <point x="645" y="507" type="line"/>
      <point x="1087" y="1032" type="line"/>
      <point x="919" y="1032" type="line"/>
      <point x="773" y="850"/>
      <point x="807" y="887"/>
      <point x="659" y="707" type="curve"/>
      <point x="612" y="649"/>
      <point x="610" y="649"/>
      <point x="563" y="593" type="curve"/>
      <point x="516" y="651"/>
      <point x="520" y="642"/>
      <point x="473" y="699" type="curve"/>
      <point x="325" y="879"/>
      <point x="352" y="850"/>
      <point x="207" y="1032" type="curve"/>
      <point x="55" y="1032" type="line"/>
      <point x="492" y="511" type="line"/>
    </contour>
  </outline>
</glyph>
<glyph name="y" format="1">
  <advance width="1064"/>
  <unicode hex="0079"/>
  <outline>
    <contour>
      <point x="320" y="-391" type="curve"/>
      <point x="457" y="-391" type="line"/>
      <point x="455" y="-389"/>
      <point x="531" y="-230"/>
      <point x="588" y="-102" type="curve" smooth="yes"/>
      <point x="1049" y="1032" type="line"/>
      <point x="906" y="1032" type="line"/>
      <point x="533" y="66" type="line"/>
      <point x="160" y="1032" type="line"/>
      <point x="21" y="1032" type="line"/>
      <point x="464" y="-63" type="line"/>
      <point x="417" y="-182"/>
      <point x="372" y="-302"/>
    </contour>
  </outline>
</glyph>
<glyph name="z" format="1">
  <advance width="941"/>
  <unicode hex="007A"/>
  <outline>
    <contour>
      <point x="105" y="0" type="line"/>
      <point x="866" y="0" type="line"/>
      <point x="866" y="91" type="line"/>
      <point x="249" y="91" type="line"/>
      <point x="860" y="934" type="line"/>
      <point x="860" y="1032" type="line"/>
      <point x="131" y="1032" type="line"/>
      <point x="131" y="941" type="line"/>
      <point x="707" y="941" type="line"/>
      <point x="105" y="108" type="line"/>
    </contour>
  </outline>
</glyph>
<glyph name="braceleft" format="1">
  <advance width="670"/>
  <unicode hex="007B"/>
  <outline>
    <contour>
      <point x="576" y="-50" type="curve" smooth="yes"/>
      <point x="696" y="-50" type="line"/>
      <point x="696" y="45" type="line"/>
      <point x="524" y="45" type="line" smooth="yes"/>
      <point x="435" y="45"/>
      <point x="407" y="81"/>
      <point x="407" y="88" type="curve" smooth="yes"/>
      <point x="407" y="358" type="line" smooth="yes"/>
      <point x="407" y="603"/>
      <point x="360" y="728"/>
      <point x="181" y="782" type="curve"/>
      <point x="181" y="787" type="line"/>
      <point x="337" y="834"/>
      <point x="407" y="955"/>
      <point x="407" y="1174" type="curve" smooth="yes"/>
      <point x="407" y="1441" type="line" smooth="yes"/>
      <point x="407" y="1476"/>
      <point x="423" y="1527"/>
      <point x="517" y="1527" type="curve" smooth="yes"/>
      <point x="696" y="1527" type="line"/>
      <point x="696" y="1622" type="line"/>
      <point x="628" y="1622" type="line" smooth="yes"/>
      <point x="378" y="1622"/>
      <point x="271" y="1585"/>
      <point x="271" y="1328" type="curve" smooth="yes"/>
      <point x="271" y="1166" type="line" smooth="yes"/>
      <point x="271" y="963"/>
      <point x="188" y="845"/>
      <point x="-31" y="845" type="curve"/>
      <point x="-31" y="726" type="line"/>
      <point x="190" y="726"/>
      <point x="271" y="614"/>
      <point x="271" y="404" type="curve" smooth="yes"/>
      <point x="271" y="209" type="line" smooth="yes"/>
      <point x="271" y="-11"/>
      <point x="376" y="-50"/>
    </contour>
  </outline>
</glyph>
<glyph name="bar" format="1">
  <advance width="340"/>
  <unicode hex="007C"/>
  <outline>
    <contour>
      <point x="106" y="-272" type="line"/>
      <point x="234" y="-272" type="line"/>
      <point x="234" y="1481" type="line"/>
      <point x="106" y="1481" type="line"/>
    </contour>
  </outline>
</glyph>
<glyph name="braceright" format="1">
  <advance width="670"/>
  <unicode hex="007D"/>
  <outline>
    <contour>
      <point x="-25" y="-50" type="line"/>
      <point x="46" y="-50" type="line" smooth="yes"/>
      <point x="295" y="-50"/>
      <point x="400" y="-17"/>
      <point x="400" y="241" type="curve" smooth="yes"/>
      <point x="400" y="403" type="line" smooth="yes"/>
      <point x="400" y="606"/>
      <point x="483" y="726"/>
      <point x="702" y="726" type="curve"/>
      <point x="702" y="845" type="line"/>
      <point x="481" y="845"/>
      <point x="400" y="956"/>
      <point x="400" y="1166" type="curve" smooth="yes"/>
      <point x="400" y="1358" type="line" smooth="yes"/>
      <point x="400" y="1578"/>
      <point x="297" y="1622"/>
      <point x="96" y="1622" type="curve" smooth="yes"/>
      <point x="-25" y="1622" type="line"/>
      <point x="-25" y="1524" type="line"/>
      <point x="145" y="1524" type="line" smooth="yes"/>
      <point x="234" y="1524"/>
      <point x="262" y="1489"/>
      <point x="262" y="1482" type="curve" smooth="yes"/>
      <point x="262" y="1215" type="line" smooth="yes"/>
      <point x="262" y="969"/>
      <point x="309" y="841"/>
      <point x="488" y="787" type="curve"/>
      <point x="488" y="782" type="line"/>
      <point x="332" y="735"/>
      <point x="262" y="617"/>
      <point x="262" y="398" type="curve" smooth="yes"/>
      <point x="262" y="127" type="line" smooth="yes"/>
      <point x="262" y="92"/>
      <point x="245" y="43"/>
      <point x="151" y="43" type="curve" smooth="yes"/>
      <point x="-25" y="43" type="line"/>
    </contour>
  </outline>
</glyph>
<glyph name="cent" format="1">
  <advance width="912"/>
  <unicode hex="00A2"/>
  <outline>
    <contour>
      <point x="444" y="-289" type="line"/>
      <point x="514" y="-289" type="line"/>
      <point x="514" y="1302" type="line"/>
      <point x="444" y="1302" type="line"/>
    </contour>
    <component base="c" xOffset="-140"/>
  </outline>
</glyph>
<glyph name="currency" format="1">
  <advance width="1063"/>
  <unicode hex="00A4"/>
  <outline>
    <contour>
      <point x="204" y="251" type="line"/>
      <point x="297" y="347" type="line"/>
      <point x="351" y="307"/>
      <point x="440" y="272"/>
      <point x="535" y="272" type="curve" smooth="yes"/>
      <point x="631" y="272"/>
      <point x="714" y="305"/>
      <point x="771" y="347" type="curve"/>
      <point x="865" y="251" type="line"/>
      <point x="964" y="352" type="line"/>
      <point x="872" y="445" type="line"/>
      <point x="914" y="499"/>
      <point x="947" y="588"/>
      <point x="947" y="684" type="curve" smooth="yes"/>
      <point x="947" y="780"/>
      <point x="914" y="866"/>
      <point x="872" y="922" type="curve"/>
      <point x="964" y="1016" type="line"/>
      <point x="865" y="1115" type="line"/>
      <point x="771" y="1024" type="line"/>
      <point x="714" y="1065"/>
      <point x="631" y="1097"/>
      <point x="535" y="1097" type="curve" smooth="yes"/>
      <point x="440" y="1097"/>
      <point x="351" y="1064"/>
      <point x="297" y="1022" type="curve"/>
      <point x="204" y="1115" type="line"/>
      <point x="100" y="1016" type="line"/>
      <point x="195" y="922" type="line"/>
      <point x="153" y="866"/>
      <point x="120" y="780"/>
      <point x="120" y="684" type="curve" smooth="yes"/>
      <point x="120" y="588"/>
      <point x="154" y="499"/>
      <point x="195" y="447" type="curve"/>
      <point x="100" y="352" type="line"/>
    </contour>
    <contour>
      <point x="535" y="423" type="curve" smooth="yes"/>
      <point x="390" y="423"/>
      <point x="289" y="524"/>
      <point x="289" y="684" type="curve" smooth="yes"/>
      <point x="289" y="842"/>
      <point x="390" y="943"/>
      <point x="535" y="943" type="curve" smooth="yes"/>
      <point x="684" y="943"/>
      <point x="782" y="842"/>
      <point x="782" y="684" type="curve" smooth="yes"/>
      <point x="782" y="524"/>
      <point x="684" y="423"/>
    </contour>
  </outline>
</glyph>
<glyph name="yen" format="1">
  <advance width="1450"/>
  <unicode hex="00A5"/>
  <outline>
    <contour>
      <point x="632" y="0" type="line"/>
      <point x="761" y="0" type="line"/>
      <point x="761" y="352" type="line"/>
      <point x="1192" y="352" type="line"/>
      <point x="1192" y="408" type="line"/>
      <point x="761" y="408" type="line"/>
      <point x="761" y="595" type="line"/>
      <point x="1192" y="595" type="line"/>
      <point x="1192" y="660" type="line"/>
      <point x="707" y="660" type="line"/>
      <point x="1360" y="1481" type="line"/>
      <point x="1227" y="1481" type="line"/>
      <point x="692" y="799" type="line"/>
      <point x="208" y="1481" type="line"/>
      <point x="88" y="1481" type="line"/>
      <point x="681" y="660" type="line"/>
      <point x="258" y="660" type="line"/>
      <point x="258" y="595" type="line"/>
      <point x="632" y="595" type="line"/>
      <point x="632" y="408" type="line"/>
      <point x="258" y="408" type="line"/>
      <point x="258" y="352" type="line"/>
      <point x="632" y="352" type="line"/>
    </contour>
  </outline>
</glyph>
<glyph name="brokenbar" format="1">
  <advance width="331"/>
  <unicode hex="00A6"/>
  <outline>
    <contour>
      <point x="106" y="-337" type="line"/>
      <point x="225" y="-337" type="line"/>
      <point x="225" y="337" type="line"/>
      <point x="106" y="337" type="line"/>
    </contour>
    <contour>
      <point x="106" y="623" type="line"/>
      <point x="225" y="623" type="line"/>
      <point x="225" y="1294" type="line"/>
      <point x="106" y="1294" type="line"/>
    </contour>
  </outline>
</glyph>
<glyph name="dieresis" format="1">
  <advance width="672"/>
  <unicode hex="00A8"/>
  <outline>
    <contour>
      <point x="117" y="1228" type="line"/>
      <point x="281" y="1228" type="line"/>
      <point x="281" y="1419" type="line"/>
      <point x="117" y="1419" type="line"/>
    </contour>
    <contour>
      <point x="386" y="1228" type="line"/>
      <point x="548" y="1228" type="line"/>
      <point x="548" y="1419" type="line"/>
      <point x="386" y="1419" type="line"/>
    </contour>
  </outline>
</glyph>
<glyph name="copyright" format="1">
  <advance width="1709"/>
  <unicode hex="00A9"/>
  <outline>
    <contour>
      <point x="876" y="213" type="curve" smooth="yes"/>
      <point x="969" y="213"/>
      <point x="1049" y="228"/>
      <point x="1153" y="298" type="curve"/>
      <point x="1107" y="360" type="line"/>
      <point x="1107" y="360"/>
      <point x="998" y="288"/>
      <point x="889" y="288" type="curve" smooth="yes"/>
      <point x="735" y="288"/>
      <point x="584" y="377"/>
      <point x="584" y="610" type="curve" smooth="yes"/>
      <point x="584" y="841"/>
      <point x="736" y="921"/>
      <point x="851" y="921" type="curve" smooth="yes"/>
      <point x="929" y="921"/>
      <point x="948" y="934"/>
      <point x="1081" y="856" type="curve"/>
      <point x="1111" y="916" type="line"/>
      <point x="1027" y="981"/>
      <point x="933" y="998"/>
      <point x="848" y="998" type="curve" smooth="yes"/>
      <point x="623" y="998"/>
      <point x="475" y="851"/>
      <point x="475" y="613" type="curve" smooth="yes"/>
      <point x="475" y="304"/>
      <point x="693" y="213"/>
    </contour>
    <contour>
      <point x="852" y="-40" type="curve" smooth="yes"/>
      <point x="524" y="-40"/>
      <point x="185" y="224"/>
      <point x="185" y="607" type="curve" smooth="yes"/>
      <point x="185" y="974"/>
      <point x="509" y="1257"/>
      <point x="852" y="1257" type="curve" smooth="yes"/>
      <point x="1181" y="1257"/>
      <point x="1511" y="985"/>
      <point x="1511" y="605" type="curve" smooth="yes"/>
      <point x="1511" y="230"/>
      <point x="1181" y="-40"/>
    </contour>
    <contour>
      <point x="852" y="-127" type="curve" smooth="yes"/>
      <point x="1264" y="-127"/>
      <point x="1614" y="216"/>
      <point x="1614" y="607" type="curve" smooth="yes"/>
      <point x="1614" y="1002"/>
      <point x="1252" y="1344"/>
      <point x="852" y="1344" type="curve" smooth="yes"/>
      <point x="440" y="1344"/>
      <point x="93" y="998"/>
      <point x="93" y="607" type="curve" smooth="yes"/>
      <point x="93" y="192"/>
      <point x="456" y="-127"/>
    </contour>
  </outline>
</glyph>
<glyph name="ordfeminine" format="1">
  <advance width="786"/>
  <unicode hex="00AA"/>
  <outline>
    <contour>
      <point x="307" y="654" type="curve" smooth="yes"/>
      <point x="397" y="654"/>
      <point x="494" y="680"/>
      <point x="548" y="734" type="curve"/>
      <point x="550" y="734" type="line"/>
      <point x="550" y="668" type="line"/>
      <point x="684" y="668" type="line"/>
      <point x="684" y="1139" type="line" smooth="yes"/>
      <point x="684" y="1326"/>
      <point x="619" y="1428"/>
      <point x="382" y="1428" type="curve" smooth="yes"/>
      <point x="262" y="1428"/>
      <point x="195" y="1403"/>
      <point x="121" y="1367" type="curve"/>
      <point x="154" y="1271" type="line"/>
      <point x="230" y="1304"/>
      <point x="292" y="1323"/>
      <point x="394" y="1323" type="curve" smooth="yes"/>
      <point x="519" y="1323"/>
      <point x="550" y="1263"/>
      <point x="550" y="1115" type="curve"/>
      <point x="257" y="1115"/>
      <point x="93" y="1068"/>
      <point x="93" y="877" type="curve" smooth="yes"/>
      <point x="93" y="710"/>
      <point x="224" y="654"/>
    </contour>
    <contour>
      <point x="330" y="768" type="curve" smooth="yes"/>
      <point x="229" y="768"/>
      <point x="213" y="837"/>
      <point x="213" y="891" type="curve" smooth="yes"/>
      <point x="213" y="977"/>
      <point x="321" y="1029"/>
      <point x="550" y="1029" type="curve"/>
      <point x="550" y="881" type="line"/>
      <point x="529" y="845"/>
      <point x="428" y="768"/>
    </contour>
  </outline>
</glyph>
<glyph name="guillemotleft" format="1">
  <advance width="781"/>
  <unicode hex="00AB"/>
  <outline>
    <contour>
      <point x="444" y="184" type="curve"/>
      <point x="444" y="303" type="line"/>
      <point x="505" y="253"/>
      <point x="35" y="580"/>
      <point x="35" y="580" type="curve"/>
      <point x="444" y="857" type="line"/>
      <point x="444" y="996" type="line"/>
      <point x="444" y="996"/>
      <point x="157" y="788"/>
      <point x="-28" y="635" type="curve"/>
      <point x="-28" y="533" type="line"/>
      <point x="155" y="396"/>
      <point x="444" y="184"/>
    </contour>
    <contour>
      <point x="805" y="184" type="curve"/>
      <point x="805" y="303" type="line"/>
      <point x="866" y="253"/>
      <point x="394" y="580"/>
      <point x="394" y="580" type="curve"/>
      <point x="805" y="857" type="line"/>
      <point x="805" y="996" type="line"/>
      <point x="805" y="996"/>
      <point x="517" y="788"/>
      <point x="331" y="635" type="curve"/>
      <point x="331" y="533" type="line"/>
      <point x="515" y="396"/>
      <point x="805" y="184"/>
    </contour>
  </outline>
</glyph>
<glyph name="logicalnot" format="1">
  <advance width="1011"/>
  <unicode hex="00AC"/>
  <outline>
    <contour>
      <point x="900" y="412" type="line"/>
      <point x="906" y="412" type="line"/>
      <point x="906" y="775" type="line"/>
      <point x="101" y="775" type="line"/>
      <point x="101" y="753" type="line"/>
      <point x="900" y="753" type="line"/>
    </contour>
  </outline>
</glyph>
<glyph name="uni00AD" format="1">
  <advance width="790"/>
  <unicode hex="00AD"/>
  <outline>
    <contour>
      <point x="106" y="586" type="line"/>
      <point x="683" y="586" type="line"/>
      <point x="683" y="628" type="line"/>
      <point x="106" y="628" type="line"/>
    </contour>
  </outline>
</glyph>
<glyph name="registered" format="1">
  <advance width="1711"/>
  <unicode hex="00AE"/>
  <outline>
    <contour>
      <point x="546" y="228" type="line"/>
      <point x="651" y="228" type="line"/>
      <point x="651" y="582" type="line"/>
      <point x="875" y="582" type="line"/>
      <point x="1120" y="228" type="line"/>
      <point x="1202" y="228" type="line"/>
      <point x="1202" y="273" type="line"/>
      <point x="974" y="596" type="line"/>
      <point x="1081" y="597"/>
      <point x="1177" y="677"/>
      <point x="1177" y="810" type="curve" smooth="yes"/>
      <point x="1177" y="997"/>
      <point x="1015" y="1033"/>
      <point x="843" y="1033" type="curve" smooth="yes"/>
      <point x="546" y="1033" type="line"/>
    </contour>
    <contour>
      <point x="651" y="663" type="line"/>
      <point x="651" y="950" type="line"/>
      <point x="843" y="950" type="line" smooth="yes"/>
      <point x="1091" y="950"/>
      <point x="1072" y="883"/>
      <point x="1072" y="791" type="curve" smooth="yes"/>
      <point x="1072" y="718"/>
      <point x="1002" y="663"/>
      <point x="893" y="663" type="curve" smooth="yes"/>
    </contour>
    <contour>
      <point x="854" y="-40" type="curve" smooth="yes"/>
      <point x="525" y="-40"/>
      <point x="187" y="224"/>
      <point x="187" y="607" type="curve" smooth="yes"/>
      <point x="187" y="974"/>
      <point x="510" y="1257"/>
      <point x="854" y="1257" type="curve" smooth="yes"/>
      <point x="1183" y="1257"/>
      <point x="1513" y="985"/>
      <point x="1513" y="605" type="curve" smooth="yes"/>
      <point x="1513" y="230"/>
      <point x="1183" y="-40"/>
    </contour>
    <contour>
      <point x="854" y="-127" type="curve" smooth="yes"/>
      <point x="1266" y="-127"/>
      <point x="1616" y="216"/>
      <point x="1616" y="607" type="curve" smooth="yes"/>
      <point x="1616" y="1002"/>
      <point x="1253" y="1344"/>
      <point x="854" y="1344" type="curve" smooth="yes"/>
      <point x="442" y="1344"/>
      <point x="95" y="998"/>
      <point x="95" y="607" type="curve" smooth="yes"/>
      <point x="95" y="192"/>
      <point x="458" y="-127"/>
    </contour>
  </outline>
</glyph>
<glyph name="macron" format="1">
  <advance width="764"/>
  <unicode hex="00AF"/>
  <outline>
    <contour>
      <point x="97" y="1195" type="line"/>
      <point x="658" y="1195" type="line"/>
      <point x="658" y="1262" type="line"/>
      <point x="97" y="1262" type="line"/>
    </contour>
  </outline>
</glyph>
<glyph name="plusminus" format="1">
  <advance width="1225"/>
  <unicode hex="00B1"/>
  <outline>
    <contour>
      <point x="556" y="291" type="line"/>
      <point x="648" y="291" type="line"/>
      <point x="648" y="670" type="line"/>
      <point x="1022" y="670" type="line"/>
      <point x="1022" y="767" type="line"/>
      <point x="648" y="767" type="line"/>
      <point x="648" y="1120" type="line"/>
      <point x="556" y="1120" type="line"/>
      <point x="556" y="767" type="line"/>
      <point x="204" y="767" type="line"/>
      <point x="204" y="670" type="line"/>
      <point x="556" y="670" type="line"/>
    </contour>
    <contour>
      <point x="234" y="0" type="line"/>
      <point x="988" y="0" type="line"/>
      <point x="988" y="99" type="line"/>
      <point x="234" y="99" type="line"/>
    </contour>
  </outline>
</glyph>
<glyph name="acute" format="1">
  <advance width="340"/>
  <unicode hex="00B4"/>
  <outline>
    <contour>
      <point x="-20" y="1110" type="line"/>
      <point x="73" y="1110" type="line"/>
      <point x="358" y="1452" type="line"/>
      <point x="172" y="1452" type="line"/>
    </contour>
  </outline>
</glyph>
<glyph name="paragraph" format="1">
  <advance width="1080"/>
  <unicode hex="00B6"/>
  <outline>
    <contour>
      <point x="588" y="-257" type="line"/>
      <point x="687" y="-257" type="line"/>
      <point x="687" y="1388" type="line"/>
      <point x="877" y="1388" type="line"/>
      <point x="877" y="-257" type="line"/>
      <point x="979" y="-257" type="line"/>
      <point x="979" y="1481" type="line"/>
      <point x="595" y="1481" type="line" smooth="yes"/>
      <point x="228" y="1481"/>
      <point x="88" y="1421"/>
      <point x="88" y="1184" type="curve" smooth="yes"/>
      <point x="88" y="945"/>
      <point x="226" y="880"/>
      <point x="588" y="880" type="curve"/>
    </contour>
  </outline>
</glyph>
<glyph name="cedilla" format="1">
  <advance width="522"/>
  <unicode hex="00B8"/>
  <outline>
    <contour>
      <point x="230" y="-490" type="curve" smooth="yes"/>
      <point x="427" y="-490"/>
      <point x="471" y="-393"/>
      <point x="471" y="-278" type="curve" smooth="yes"/>
      <point x="471" y="-179"/>
      <point x="392" y="-126"/>
      <point x="247" y="-120" type="curve"/>
      <point x="287" y="2" type="line"/>
      <point x="230" y="2" type="line"/>
      <point x="168" y="-181" type="line"/>
      <point x="185" y="-184"/>
      <point x="197" y="-191"/>
      <point x="214" y="-196" type="curve"/>
      <point x="245" y="-187"/>
      <point x="272" y="-180"/>
      <point x="296" y="-180" type="curve" smooth="yes"/>
      <point x="375" y="-180"/>
      <point x="402" y="-233"/>
      <point x="402" y="-280" type="curve" smooth="yes"/>
      <point x="402" y="-415"/>
      <point x="308" y="-438"/>
      <point x="241" y="-438" type="curve" smooth="yes"/>
      <point x="171" y="-438"/>
      <point x="101" y="-421"/>
      <point x="73" y="-390" type="curve"/>
      <point x="72" y="-390" type="line"/>
      <point x="39" y="-449" type="line"/>
      <point x="89" y="-473"/>
      <point x="180" y="-490"/>
    </contour>
  </outline>
</glyph>
<glyph name="guillemotright" format="1">
  <advance width="950"/>
  <unicode hex="00BB"/>
  <outline>
    <contour>
      <point x="65" y="183" type="line"/>
      <point x="65" y="183"/>
      <point x="356" y="391"/>
      <point x="541" y="544" type="curve"/>
      <point x="541" y="648" type="line"/>
      <point x="358" y="785"/>
      <point x="65" y="996"/>
      <point x="65" y="996" type="curve"/>
      <point x="65" y="880" type="line"/>
      <point x="4" y="930"/>
      <point x="478" y="602"/>
      <point x="478" y="602" type="curve"/>
      <point x="65" y="325" type="line"/>
    </contour>
    <contour>
      <point x="425" y="183" type="line"/>
      <point x="425" y="183"/>
      <point x="713" y="391"/>
      <point x="898" y="544" type="curve"/>
      <point x="898" y="648" type="line"/>
      <point x="715" y="785"/>
      <point x="425" y="996"/>
      <point x="425" y="996" type="curve"/>
      <point x="425" y="880" type="line"/>
      <point x="364" y="930"/>
      <point x="836" y="602"/>
      <point x="836" y="602" type="curve"/>
      <point x="425" y="325" type="line"/>
    </contour>
  </outline>
</glyph>
<glyph name="onequarter" format="1">
  <advance width="1302"/>
  <unicode hex="00BC"/>
  <outline>
    <contour>
      <point x="1137" y="0" type="line"/>
      <point x="1244" y="0" type="line"/>
      <point x="1244" y="120" type="line"/>
      <point x="1332" y="120" type="line"/>
      <point x="1332" y="224" type="line"/>
      <point x="1244" y="224" type="line"/>
      <point x="1244" y="817" type="line"/>
      <point x="1073" y="817" type="line"/>
      <point x="727" y="224" type="line"/>
      <point x="727" y="120" type="line"/>
      <point x="1137" y="120" type="line"/>
    </contour>
    <contour>
      <point x="217" y="0" type="line"/>
      <point x="344" y="0" type="line"/>
      <point x="1176" y="1428" type="line"/>
      <point x="1049" y="1428" type="line"/>
    </contour>
    <contour>
      <point x="845" y="224" type="line"/>
      <point x="1137" y="728" type="line"/>
      <point x="1137" y="224" type="line"/>
    </contour>
    <component base="one.superior" xOffset="-148"/>
  </outline>
</glyph>
<glyph name="onehalf" format="1">
  <advance width="1554"/>
  <unicode hex="00BD"/>
  <outline>
    <contour>
      <point x="271" y="0" type="line"/>
      <point x="398" y="0" type="line"/>
      <point x="1230" y="1428" type="line"/>
      <point x="1103" y="1428" type="line"/>
    </contour>
    <component base="two.superior" xOffset="844" yOffset="-553"/>
    <component base="one.superior" xOffset="-65"/>
  </outline>
</glyph>
<glyph name="threequarters" format="1">
  <advance width="1376"/>
  <unicode hex="00BE"/>
  <outline>
    <contour>
      <point x="1207" y="0" type="line"/>
      <point x="1314" y="0" type="line"/>
      <point x="1314" y="120" type="line"/>
      <point x="1401" y="120" type="line"/>
      <point x="1401" y="224" type="line"/>
      <point x="1314" y="224" type="line"/>
      <point x="1314" y="817" type="line"/>
      <point x="1145" y="817" type="line"/>
      <point x="798" y="224" type="line"/>
      <point x="798" y="120" type="line"/>
      <point x="1207" y="120" type="line"/>
    </contour>
    <contour>
      <point x="288" y="0" type="line"/>
      <point x="416" y="0" type="line"/>
      <point x="1247" y="1428" type="line"/>
      <point x="1121" y="1428" type="line"/>
    </contour>
    <contour>
      <point x="916" y="224" type="line"/>
      <point x="1207" y="728" type="line"/>
      <point x="1207" y="224" type="line"/>
    </contour>
    <component base="three.superior" xOffset="-50"/>
  </outline>
</glyph>
<glyph name="AE" format="1">
  <advance width="1801"/>
  <unicode hex="00C6"/>
  <outline>
    <contour>
      <point x="-19" y="0" type="line"/>
      <point x="125" y="0" type="line"/>
      <point x="361" y="367" type="line"/>
      <point x="973" y="367" type="line"/>
      <point x="973" y="0" type="line"/>
      <point x="1655" y="0" type="line"/>
      <point x="1655" y="95" type="line"/>
      <point x="1099" y="95" type="line"/>
      <point x="1099" y="731" type="line"/>
      <point x="1576" y="731" type="line"/>
      <point x="1576" y="826" type="line"/>
      <point x="1099" y="826" type="line"/>
      <point x="1099" y="1386" type="line"/>
      <point x="1658" y="1386" type="line"/>
      <point x="1658" y="1481" type="line"/>
      <point x="939" y="1481" type="line"/>
    </contour>
    <contour>
      <point x="428" y="461" type="line"/>
      <point x="984" y="1359" type="line"/>
      <point x="973" y="1359" type="line"/>
      <point x="973" y="461" type="line"/>
    </contour>
  </outline>
</glyph>
<glyph name="Eth" format="1">
  <advance width="1554"/>
  <unicode hex="00D0"/>
  <outline>
    <contour>
      <point x="0" y="706" type="line"/>
      <point x="660" y="706" type="line"/>
      <point x="660" y="803" type="line"/>
      <point x="0" y="803" type="line"/>
    </contour>
    <component base="D"/>
  </outline>
</glyph>
<glyph name="multiply" format="1">
  <advance width="1064"/>
  <unicode hex="00D7"/>
  <outline>
    <contour>
      <point x="189" y="40" type="line"/>
      <point x="531" y="384" type="line"/>
      <point x="871" y="40" type="line"/>
      <point x="978" y="145" type="line"/>
      <point x="635" y="486" type="line"/>
      <point x="978" y="828" type="line"/>
      <point x="871" y="935" type="line"/>
      <point x="531" y="592" type="line"/>
      <point x="189" y="935" type="line"/>
      <point x="83" y="828" type="line"/>
      <point x="428" y="486" type="line"/>
      <point x="83" y="145" type="line"/>
    </contour>
  </outline>
</glyph>
<glyph name="Oslash" format="1">
  <advance width="1578"/>
  <unicode hex="00D8"/>
  <outline>
    <contour>
      <point x="790" y="-23" type="curve" smooth="yes"/>
      <point x="1252" y="-23"/>
      <point x="1476" y="289"/>
      <point x="1476" y="740" type="curve" smooth="yes"/>
      <point x="1476" y="959"/>
      <point x="1423" y="1145"/>
      <point x="1320" y="1276" type="curve"/>
      <point x="1498" y="1481" type="line"/>
      <point x="1301" y="1481" type="line"/>
      <point x="1216" y="1378" type="line"/>
      <point x="1109" y="1458"/>
      <point x="965" y="1503"/>
      <point x="790" y="1503" type="curve" smooth="yes"/>
      <point x="328" y="1503"/>
      <point x="104" y="1197"/>
      <point x="104" y="740" type="curve" smooth="yes"/>
      <point x="104" y="542"/>
      <point x="145" y="374"/>
      <point x="230" y="243" type="curve"/>
      <point x="23" y="-2" type="line"/>
      <point x="217" y="-2" type="line"/>
      <point x="329" y="130" type="line"/>
      <point x="441" y="34"/>
      <point x="596" y="-23"/>
    </contour>
    <contour>
      <point x="319" y="336" type="line"/>
      <point x="256" y="452"/>
      <point x="233" y="595"/>
      <point x="233" y="740" type="curve" smooth="yes"/>
      <point x="233" y="1041"/>
      <point x="348" y="1398"/>
      <point x="790" y="1398" type="curve" smooth="yes"/>
      <point x="939" y="1398"/>
      <point x="1053" y="1359"/>
      <point x="1137" y="1292" type="curve"/>
    </contour>
    <contour>
      <point x="790" y="81" type="curve" smooth="yes"/>
      <point x="617" y="81"/>
      <point x="493" y="130"/>
      <point x="407" y="214" type="curve"/>
      <point x="1238" y="1182" type="line"/>
      <point x="1318" y="1060"/>
      <point x="1345" y="902"/>
      <point x="1345" y="740" type="curve" smooth="yes"/>
      <point x="1345" y="399"/>
      <point x="1212" y="81"/>
    </contour>
  </outline>
</glyph>
<glyph name="Thorn" format="1">
  <advance width="1009"/>
  <unicode hex="00DE"/>
  <outline>
    <contour>
      <point x="158" y="0" type="line"/>
      <point x="285" y="0" type="line"/>
      <point x="285" y="379" type="line"/>
      <point x="713" y="379" type="line" smooth="yes"/>
      <point x="935" y="379"/>
      <point x="1025" y="561"/>
      <point x="1025" y="741" type="curve" smooth="yes"/>
      <point x="1025" y="875"/>
      <point x="930" y="1069"/>
      <point x="699" y="1069" type="curve" smooth="yes"/>
      <point x="285" y="1069" type="line"/>
      <point x="285" y="1481" type="line"/>
      <point x="158" y="1481" type="line"/>
    </contour>
    <contour>
      <point x="285" y="473" type="line"/>
      <point x="285" y="976" type="line"/>
      <point x="697" y="976" type="line" smooth="yes"/>
      <point x="743" y="976"/>
      <point x="897" y="916"/>
      <point x="897" y="740" type="curve" smooth="yes"/>
      <point x="897" y="566"/>
      <point x="797" y="473"/>
      <point x="707" y="473" type="curve" smooth="yes"/>
    </contour>
  </outline>
</glyph>
<glyph name="germandbls" format="1">
  <advance width="1237"/>
  <unicode hex="00DF"/>
  <outline>
    <contour>
      <point x="125" y="0" type="line"/>
      <point x="252" y="0" type="line"/>
      <point x="252" y="1055" type="line" smooth="yes"/>
      <point x="252" y="1332"/>
      <point x="421" y="1409"/>
      <point x="573" y="1409" type="curve" smooth="yes"/>
      <point x="752" y="1409"/>
      <point x="867" y="1307"/>
      <point x="867" y="1200" type="curve" smooth="yes"/>
      <point x="867" y="1090"/>
      <point x="825" y="949"/>
      <point x="539" y="949" type="curve"/>
      <point x="539" y="870" type="line"/>
      <point x="886" y="870"/>
      <point x="1038" y="658"/>
      <point x="1038" y="440" type="curve" smooth="yes"/>
      <point x="1038" y="257"/>
      <point x="901" y="84"/>
      <point x="595" y="84" type="curve" smooth="yes"/>
      <point x="574" y="84"/>
      <point x="407" y="84"/>
      <point x="423" y="82" type="curve"/>
      <point x="423" y="2" type="line"/>
      <point x="388" y="3"/>
      <point x="548" y="4"/>
      <point x="567" y="4" type="curve" smooth="yes"/>
      <point x="992" y="4"/>
      <point x="1155" y="234"/>
      <point x="1155" y="428" type="curve" smooth="yes"/>
      <point x="1155" y="661"/>
      <point x="1002" y="854"/>
      <point x="730" y="920" type="curve"/>
      <point x="730" y="919" type="line"/>
      <point x="898" y="943"/>
      <point x="984" y="1097"/>
      <point x="984" y="1183" type="curve" smooth="yes"/>
      <point x="984" y="1381"/>
      <point x="790" y="1503"/>
      <point x="599" y="1503" type="curve" smooth="yes"/>
      <point x="261" y="1503"/>
      <point x="125" y="1334"/>
      <point x="125" y="1034" type="curve" smooth="yes"/>
    </contour>
  </outline>
</glyph>
<glyph name="ae" format="1">
  <advance width="1755"/>
  <unicode hex="00E6"/>
  <outline>
    <contour>
      <point x="414" y="-23" type="curve" smooth="yes"/>
      <point x="661" y="-23"/>
      <point x="812" y="93"/>
      <point x="851" y="230" type="curve"/>
      <point x="890" y="101"/>
      <point x="1034" y="-19"/>
      <point x="1290" y="-19" type="curve" smooth="yes"/>
      <point x="1472" y="-19"/>
      <point x="1558" y="47"/>
      <point x="1642" y="102" type="curve"/>
      <point x="1598" y="212" type="line"/>
      <point x="1604" y="212" type="line"/>
      <point x="1560" y="170"/>
      <point x="1455" y="108"/>
      <point x="1275" y="108" type="curve" smooth="yes"/>
      <point x="1030" y="108"/>
      <point x="877" y="274"/>
      <point x="884" y="476" type="curve"/>
      <point x="1669" y="476" type="line"/>
      <point x="1669" y="482" type="line" smooth="yes"/>
      <point x="1669" y="783"/>
      <point x="1540" y="1055"/>
      <point x="1225" y="1055" type="curve" smooth="yes"/>
      <point x="1103" y="1055"/>
      <point x="903" y="960"/>
      <point x="855" y="831" type="curve"/>
      <point x="812" y="1012"/>
      <point x="670" y="1058"/>
      <point x="495" y="1058" type="curve" smooth="yes"/>
      <point x="391" y="1058"/>
      <point x="220" y="1033"/>
      <point x="153" y="987" type="curve"/>
      <point x="176" y="874" type="line"/>
      <point x="271" y="917"/>
      <point x="379" y="944"/>
      <point x="514" y="944" type="curve" smooth="yes"/>
      <point x="779" y="944"/>
      <point x="785" y="816"/>
      <point x="793" y="625" type="curve"/>
      <point x="631" y="625"/>
      <point x="615" y="621"/>
      <point x="526" y="613" type="curve" smooth="yes"/>
      <point x="141" y="572"/>
      <point x="94" y="447"/>
      <point x="94" y="304" type="curve" smooth="yes"/>
      <point x="94" y="46"/>
      <point x="297" y="-23"/>
    </contour>
    <contour>
      <point x="399" y="79" type="curve" smooth="yes"/>
      <point x="283" y="79"/>
      <point x="209" y="147"/>
      <point x="209" y="293" type="curve" smooth="yes"/>
      <point x="209" y="408"/>
      <point x="217" y="533"/>
      <point x="792" y="524" type="curve"/>
      <point x="787" y="207"/>
      <point x="685" y="79"/>
    </contour>
    <contour>
      <point x="889" y="581" type="line"/>
      <point x="896" y="731"/>
      <point x="1017" y="935"/>
      <point x="1243" y="935" type="curve" smooth="yes"/>
      <point x="1468" y="935"/>
      <point x="1531" y="718"/>
      <point x="1533" y="581" type="curve"/>
    </contour>
  </outline>
</glyph>
<glyph name="eth" format="1">
  <advance width="2694"/>
  <unicode hex="00F0"/>
  <outline>
    <contour>
      <point x="636" y="-23" type="curve" smooth="yes"/>
      <point x="923" y="-23"/>
      <point x="1136" y="197"/>
      <point x="1136" y="544" type="curve" smooth="yes"/>
      <point x="1136" y="788"/>
      <point x="1045" y="1073"/>
      <point x="878" y="1263" type="curve"/>
      <point x="1065" y="1451" type="line"/>
      <point x="971" y="1535" type="line"/>
      <point x="786" y="1352" type="line"/>
      <point x="684" y="1433"/>
      <point x="563" y="1482"/>
      <point x="422" y="1480" type="curve" smooth="yes"/>
      <point x="413" y="1480"/>
      <point x="390" y="1382"/>
      <point x="390" y="1382" type="curve"/>
      <point x="513" y="1390"/>
      <point x="617" y="1349"/>
      <point x="708" y="1275" type="curve"/>
      <point x="545" y="1114" type="line"/>
      <point x="640" y="1029" type="line"/>
      <point x="798" y="1183" type="line"/>
      <point x="921" y="1037"/>
      <point x="997" y="835"/>
      <point x="1024" y="649" type="curve"/>
      <point x="948" y="843"/>
      <point x="710" y="870"/>
      <point x="624" y="870" type="curve" smooth="yes"/>
      <point x="396" y="870"/>
      <point x="156" y="716"/>
      <point x="156" y="442" type="curve" smooth="yes"/>
      <point x="156" y="167"/>
      <point x="363" y="-23"/>
    </contour>
    <contour>
      <point x="657" y="72" type="curve" smooth="yes"/>
      <point x="360" y="72"/>
      <point x="283" y="260"/>
      <point x="283" y="447" type="curve" smooth="yes"/>
      <point x="283" y="587"/>
      <point x="369" y="777"/>
      <point x="614" y="777" type="curve" smooth="yes"/>
      <point x="877" y="779"/>
      <point x="990" y="637"/>
      <point x="990" y="413" type="curve" smooth="yes"/>
      <point x="990" y="262"/>
      <point x="881" y="72"/>
    </contour>
  </outline>
</glyph>
<glyph name="oslash" format="1">
  <advance width="1197"/>
  <unicode hex="00F8"/>
  <outline>
    <contour>
      <point x="597" y="-19" type="curve" smooth="yes"/>
      <point x="829" y="-19"/>
      <point x="1091" y="123"/>
      <point x="1091" y="521" type="curve" smooth="yes"/>
      <point x="1091" y="674"/>
      <point x="1052" y="788"/>
      <point x="991" y="873" type="curve"/>
      <point x="1121" y="1008" type="line"/>
      <point x="994" y="1008" type="line"/>
      <point x="929" y="943" type="line"/>
      <point x="835" y="1027"/>
      <point x="714" y="1057"/>
      <point x="597" y="1057" type="curve" smooth="yes"/>
      <point x="384" y="1057"/>
      <point x="109" y="922"/>
      <point x="109" y="522" type="curve" smooth="yes"/>
      <point x="109" y="371"/>
      <point x="144" y="257"/>
      <point x="202" y="172" type="curve"/>
      <point x="75" y="39" type="line"/>
      <point x="200" y="39" type="line"/>
      <point x="260" y="103" type="line"/>
      <point x="354" y="18"/>
      <point x="478" y="-19"/>
    </contour>
    <contour>
      <point x="299" y="270" type="line"/>
      <point x="261" y="336"/>
      <point x="239" y="422"/>
      <point x="239" y="520" type="curve" smooth="yes"/>
      <point x="239" y="773"/>
      <point x="397" y="938"/>
      <point x="597" y="938" type="curve" smooth="yes"/>
      <point x="696" y="938"/>
      <point x="776" y="909"/>
      <point x="840" y="850" type="curve"/>
    </contour>
    <contour>
      <point x="598" y="94" type="curve" smooth="yes"/>
      <point x="501" y="94"/>
      <point x="415" y="132"/>
      <point x="353" y="196" type="curve"/>
      <point x="896" y="780" type="line"/>
      <point x="936" y="713"/>
      <point x="957" y="623"/>
      <point x="957" y="518" type="curve" smooth="yes"/>
      <point x="957" y="276"/>
      <point x="836" y="94"/>
    </contour>
  </outline>
</glyph>
<glyph name="thorn" format="1">
  <advance width="1172"/>
  <unicode hex="00FE"/>
  <outline>
    <contour>
      <point x="147" y="-386" type="line"/>
      <point x="274" y="-386" type="line"/>
      <point x="274" y="135" type="line"/>
      <point x="376" y="1"/>
      <point x="499" y="-17"/>
      <point x="632" y="-17" type="curve" smooth="yes"/>
      <point x="872" y="-17"/>
      <point x="1073" y="156"/>
      <point x="1073" y="506" type="curve" smooth="yes"/>
      <point x="1073" y="876"/>
      <point x="869" y="1051"/>
      <point x="599" y="1051" type="curve" smooth="yes"/>
      <point x="474" y="1051"/>
      <point x="356" y="982"/>
      <point x="274" y="847" type="curve"/>
      <point x="274" y="1428" type="line"/>
      <point x="147" y="1428" type="line"/>
    </contour>
    <contour>
      <point x="611" y="78" type="curve" smooth="yes"/>
      <point x="563" y="78"/>
      <point x="356" y="100"/>
      <point x="274" y="245" type="curve"/>
      <point x="274" y="757" type="line"/>
      <point x="361" y="893"/>
      <point x="534" y="942"/>
      <point x="647" y="942" type="curve" smooth="yes"/>
      <point x="927" y="942"/>
      <point x="946" y="723"/>
      <point x="946" y="508" type="curve" smooth="yes"/>
      <point x="946" y="199"/>
      <point x="799" y="78"/>
    </contour>
  </outline>
</glyph>
<glyph name="dcroat" format="1">
  <advance width="1138"/>
  <unicode hex="0111"/>
  <outline>
    <contour>
      <point x="610" y="-36" type="curve"/>
      <point x="734" y="-34"/>
      <point x="853" y="17"/>
      <point x="897" y="130" type="curve"/>
      <point x="897" y="0" type="line"/>
      <point x="1023" y="0" type="line"/>
      <point x="1023" y="1428" type="line"/>
      <point x="897" y="1428" type="line"/>
      <point x="897" y="853" type="line"/>
      <point x="817" y="1027"/>
      <point x="641" y="1046"/>
      <point x="536" y="1046" type="curve" smooth="yes"/>
      <point x="326" y="1046"/>
      <point x="100" y="857"/>
      <point x="100" y="496" type="curve" smooth="yes"/>
      <point x="100" y="103"/>
      <point x="368" y="-36"/>
    </contour>
    <contour>
      <point x="560" y="73" type="curve" smooth="yes"/>
      <point x="320" y="73"/>
      <point x="226" y="256"/>
      <point x="226" y="514" type="curve" smooth="yes"/>
      <point x="226" y="835"/>
      <point x="409" y="938"/>
      <point x="577" y="938" type="curve" smooth="yes"/>
      <point x="775" y="938"/>
      <point x="924" y="819"/>
      <point x="897" y="761" type="curve"/>
      <point x="897" y="266" type="line"/>
      <point x="908" y="211"/>
      <point x="776" y="73"/>
    </contour>
  </outline>
</glyph>
<glyph name="dotlessi" format="1">
  <advance width="500"/>
  <unicode hex="0131"/>
  <outline>
    <contour>
      <point x="181" y="0" type="line"/>
      <point x="309" y="0" type="line"/>
      <point x="309" y="1032" type="line"/>
      <point x="181" y="1032" type="line"/>
    </contour>
  </outline>
</glyph>
<glyph name="kgreenlandic" format="1">
  <advance width="1036"/>
  <unicode hex="0138"/>
  <outline>
    <contour>
      <point x="115" y="0" type="line"/>
      <point x="243" y="0" type="line"/>
      <point x="243" y="398" type="line"/>
      <point x="416" y="541" type="line"/>
      <point x="897" y="0" type="line"/>
      <point x="1037" y="0" type="line"/>
      <point x="1037" y="42" type="line"/>
      <point x="511" y="583" type="line"/>
      <point x="990" y="988" type="line"/>
      <point x="990" y="1032" type="line"/>
      <point x="837" y="1032" type="line"/>
      <point x="244" y="523" type="line"/>
      <point x="243" y="523" type="line"/>
      <point x="243" y="738" type="line"/>
      <point x="115" y="738" type="line"/>
    </contour>
  </outline>
</glyph>
<glyph name="Lslash" format="1">
  <advance width="1087"/>
  <unicode hex="0141"/>
  <outline>
    <contour>
      <point x="249" y="0" type="line"/>
      <point x="1050" y="0" type="line"/>
      <point x="1050" y="95" type="line"/>
      <point x="375" y="95" type="line"/>
      <point x="375" y="645" type="line"/>
      <point x="732" y="902" type="line"/>
      <point x="732" y="1033" type="line"/>
      <point x="375" y="775" type="line"/>
      <point x="375" y="1481" type="line"/>
      <point x="249" y="1481" type="line"/>
      <point x="249" y="684" type="line"/>
      <point x="85" y="569" type="line"/>
      <point x="85" y="437" type="line"/>
      <point x="249" y="554" type="line"/>
    </contour>
  </outline>
</glyph>
<glyph name="lslash" format="1">
  <advance width="549"/>
  <unicode hex="0142"/>
  <outline>
    <contour>
      <point x="436" y="-11" type="curve" smooth="yes"/>
      <point x="518" y="-11" type="line"/>
      <point x="518" y="100" type="line"/>
      <point x="244" y="100"/>
      <point x="279" y="152"/>
      <point x="279" y="319" type="curve" smooth="yes"/>
      <point x="279" y="746" type="line"/>
      <point x="446" y="892" type="line"/>
      <point x="446" y="1034" type="line"/>
      <point x="279" y="889" type="line"/>
      <point x="280" y="1428" type="line"/>
      <point x="151" y="1428" type="line"/>
      <point x="151" y="771" type="line"/>
      <point x="50" y="685" type="line"/>
      <point x="50" y="544" type="line"/>
      <point x="151" y="629" type="line"/>
      <point x="151" y="285" type="line" smooth="yes"/>
      <point x="151" y="75"/>
      <point x="191" y="-11"/>
    </contour>
  </outline>
</glyph>
<glyph name="OE" format="1">
  <advance width="1854"/>
  <unicode hex="0152"/>
  <outline>
    <contour>
      <point x="777" y="0" type="curve" smooth="yes"/>
      <point x="1792" y="0" type="line"/>
      <point x="1792" y="96" type="line"/>
      <point x="1160" y="96" type="line"/>
      <point x="1160" y="739" type="line"/>
      <point x="1711" y="739" type="line"/>
      <point x="1711" y="834" type="line"/>
      <point x="1160" y="834" type="line"/>
      <point x="1160" y="1387" type="line"/>
      <point x="1792" y="1387" type="line"/>
      <point x="1792" y="1481" type="line"/>
      <point x="715" y="1481" type="line" smooth="yes"/>
      <point x="281" y="1481"/>
      <point x="134" y="1091"/>
      <point x="134" y="766" type="curve" smooth="yes"/>
      <point x="134" y="520"/>
      <point x="125" y="0"/>
    </contour>
    <contour>
      <point x="722" y="96" type="line" smooth="yes"/>
      <point x="356" y="96"/>
      <point x="261" y="451"/>
      <point x="261" y="764" type="curve" smooth="yes"/>
      <point x="261" y="1076"/>
      <point x="376" y="1387"/>
      <point x="727" y="1387" type="curve" smooth="yes"/>
      <point x="1033" y="1387" type="line"/>
      <point x="1033" y="96" type="line"/>
    </contour>
  </outline>
</glyph>
<glyph name="oe" format="1">
  <advance width="1853"/>
  <unicode hex="0153"/>
  <outline>
    <contour>
      <point x="531" y="-27" type="curve" smooth="yes"/>
      <point x="750" y="-27"/>
      <point x="874" y="71"/>
      <point x="958" y="203" type="curve"/>
      <point x="1032" y="73"/>
      <point x="1199" y="-23"/>
      <point x="1371" y="-23" type="curve" smooth="yes"/>
      <point x="1591" y="-23"/>
      <point x="1677" y="47"/>
      <point x="1758" y="103" type="curve"/>
      <point x="1718" y="180" type="line"/>
      <point x="1651" y="180" type="line"/>
      <point x="1628" y="148"/>
      <point x="1592" y="92"/>
      <point x="1391" y="92" type="curve" smooth="yes"/>
      <point x="1123" y="92"/>
      <point x="1028" y="302"/>
      <point x="1030" y="468" type="curve" smooth="yes"/>
      <point x="1765" y="477" type="line"/>
      <point x="1765" y="485" type="line" smooth="yes"/>
      <point x="1765" y="791"/>
      <point x="1632" y="1045"/>
      <point x="1321" y="1045" type="curve" smooth="yes"/>
      <point x="1109" y="1045"/>
      <point x="996" y="891"/>
      <point x="947" y="795" type="curve"/>
      <point x="905" y="919"/>
      <point x="766" y="1052"/>
      <point x="537" y="1052" type="curve" smooth="yes"/>
      <point x="558" y="1052"/>
      <point x="48" y="1047"/>
      <point x="48" y="514" type="curve" smooth="yes"/>
      <point x="48" y="-6"/>
      <point x="540" y="-27"/>
    </contour>
    <contour>
      <point x="534" y="96" type="curve" smooth="yes"/>
      <point x="402" y="96"/>
      <point x="182" y="175"/>
      <point x="182" y="511" type="curve" smooth="yes"/>
      <point x="182" y="839"/>
      <point x="423" y="936"/>
      <point x="527" y="936" type="curve" smooth="yes"/>
      <point x="717" y="936"/>
      <point x="885" y="868"/>
      <point x="885" y="511" type="curve" smooth="yes"/>
      <point x="885" y="186"/>
      <point x="675" y="96"/>
    </contour>
    <contour>
      <point x="1039" y="589" type="line"/>
      <point x="1059" y="696"/>
      <point x="1113" y="920"/>
      <point x="1366" y="920" type="curve" smooth="yes"/>
      <point x="1579" y="920"/>
      <point x="1641" y="717"/>
      <point x="1646" y="589" type="curve"/>
    </contour>
  </outline>
</glyph>
<glyph name="florin" format="1">
  <advance width="1166"/>
  <unicode hex="0192"/>
  <outline>
    <contour>
      <point x="216" y="-177" type="curve" smooth="yes"/>
      <point x="406" y="-177"/>
      <point x="526" y="-50"/>
      <point x="570" y="93" type="curve"/>
      <point x="571" y="89"/>
      <point x="627" y="474"/>
      <point x="668" y="750" type="curve"/>
      <point x="988" y="750" type="line"/>
      <point x="1001" y="828" type="line"/>
      <point x="681" y="828" type="line"/>
      <point x="705" y="987"/>
      <point x="719" y="1093"/>
      <point x="716" y="1071" type="curve" smooth="yes"/>
      <point x="758" y="1307"/>
      <point x="819" y="1406"/>
      <point x="952" y="1406" type="curve" smooth="yes"/>
      <point x="983" y="1406"/>
      <point x="1070" y="1400"/>
      <point x="1093" y="1393" type="curve"/>
      <point x="1099" y="1472" type="line"/>
      <point x="1075" y="1477"/>
      <point x="1040" y="1483"/>
      <point x="1002" y="1483" type="curve" smooth="yes"/>
      <point x="764" y="1483"/>
      <point x="624" y="1334"/>
      <point x="575" y="1053" type="curve" smooth="yes"/>
      <point x="582" y="1103"/>
      <point x="565" y="995"/>
      <point x="540" y="828" type="curve"/>
      <point x="275" y="828" type="line"/>
      <point x="261" y="750" type="line"/>
      <point x="532" y="750" type="line"/>
      <point x="491" y="468"/>
      <point x="433" y="101"/>
      <point x="452" y="237" type="curve" smooth="yes"/>
      <point x="403" y="-55"/>
      <point x="327" y="-81"/>
      <point x="236" y="-81" type="curve" smooth="yes"/>
      <point x="206" y="-81"/>
      <point x="146" y="-72"/>
      <point x="122" y="-64" type="curve"/>
      <point x="114" y="-163" type="line"/>
      <point x="138" y="-169"/>
      <point x="172" y="-177"/>
    </contour>
  </outline>
</glyph>
<glyph name="uni0237" format="1">
  <advance width="494"/>
  <unicode hex="0237"/>
  <outline>
    <contour>
      <point x="102" y="-368" type="curve" smooth="yes"/>
      <point x="332" y="-368"/>
      <point x="326" y="-190"/>
      <point x="326" y="26" type="curve" smooth="yes"/>
      <point x="326" y="1028" type="line"/>
      <point x="199" y="1028" type="line"/>
      <point x="199" y="-34" type="line" smooth="yes"/>
      <point x="199" y="-237"/>
      <point x="135" y="-249"/>
      <point x="33" y="-249" type="curve" smooth="yes"/>
      <point x="2" y="-249"/>
      <point x="-4" y="-250"/>
      <point x="-40" y="-247" type="curve"/>
      <point x="-40" y="-362" type="line"/>
      <point x="-10" y="-365"/>
      <point x="0" y="-368"/>
    </contour>
  </outline>
</glyph>
<glyph name="circumflex" format="1">
  <advance width="842"/>
  <unicode hex="02C6"/>
  <outline>
    <contour>
      <point x="83" y="1162" type="line"/>
      <point x="190" y="1162" type="line"/>
      <point x="419" y="1422" type="line"/>
      <point x="650" y="1162" type="line"/>
      <point x="759" y="1162" type="line"/>
      <point x="471" y="1504" type="line"/>
      <point x="370" y="1504" type="line"/>
    </contour>
  </outline>
</glyph>
<glyph name="caron" format="1">
  <advance width="759"/>
  <unicode hex="02C7"/>
  <outline>
    <contour>
      <point x="355" y="1022" type="line"/>
      <point x="372" y="1022" type="line"/>
      <point x="674" y="1365" type="line"/>
      <point x="630" y="1365" type="line"/>
      <point x="365" y="1089" type="line"/>
      <point x="146" y="1365" type="line"/>
      <point x="88" y="1365" type="line"/>
    </contour>
  </outline>
</glyph>
<glyph name="uni02C9" format="1">
  <advance width="1230"/>
  <unicode hex="02C9"/>
  <outline>
    <contour>
      <point x="335" y="1171" type="line"/>
      <point x="890" y="1171" type="line"/>
      <point x="890" y="1223" type="line"/>
      <point x="335" y="1223" type="line"/>
    </contour>
  </outline>
</glyph>
<glyph name="breve" format="1">
  <advance width="855"/>
  <unicode hex="02D8"/>
  <outline>
    <contour>
      <point x="427" y="1142" type="curve" smooth="yes"/>
      <point x="637" y="1142"/>
      <point x="760" y="1255"/>
      <point x="757" y="1469" type="curve"/>
      <point x="628" y="1469" type="line"/>
      <point x="635" y="1318"/>
      <point x="571" y="1270"/>
      <point x="427" y="1270" type="curve" smooth="yes"/>
      <point x="272" y="1270"/>
      <point x="221" y="1317"/>
      <point x="228" y="1469" type="curve"/>
      <point x="100" y="1469" type="line"/>
      <point x="98" y="1256"/>
      <point x="200" y="1142"/>
    </contour>
  </outline>
</glyph>
<glyph name="dotaccent" format="1">
  <advance width="429"/>
  <unicode hex="02D9"/>
  <outline>
    <contour>
      <point x="321" y="2018" type="curve" smooth="yes"/>
      <point x="395" y="2018"/>
      <point x="457" y="2078"/>
      <point x="457" y="2153" type="curve" smooth="yes"/>
      <point x="457" y="2227"/>
      <point x="395" y="2288"/>
      <point x="321" y="2288" type="curve" smooth="yes"/>
      <point x="246" y="2288"/>
      <point x="187" y="2227"/>
      <point x="187" y="2153" type="curve" smooth="yes"/>
      <point x="187" y="2078"/>
      <point x="246" y="2018"/>
    </contour>
  </outline>
</glyph>
<glyph name="ogonek" format="1">
  <advance width="522"/>
  <unicode hex="02DB"/>
  <outline>
    <contour>
      <point x="281" y="-409" type="curve" smooth="yes"/>
      <point x="320" y="-405"/>
      <point x="373" y="-395"/>
      <point x="446" y="-372" type="curve"/>
      <point x="433" y="-284" type="line"/>
      <point x="376" y="-299"/>
      <point x="301" y="-306"/>
      <point x="287" y="-306" type="curve" smooth="yes"/>
      <point x="206" y="-306"/>
      <point x="186" y="-260"/>
      <point x="183" y="-207" type="curve" smooth="yes"/>
      <point x="179" y="-143"/>
      <point x="202" y="-67"/>
      <point x="244" y="5" type="curve"/>
      <point x="172" y="5" type="line"/>
      <point x="131" y="-43"/>
      <point x="90" y="-108"/>
      <point x="82" y="-186" type="curve" smooth="yes"/>
      <point x="69" y="-320"/>
      <point x="125" y="-409"/>
    </contour>
  </outline>
</glyph>
<glyph name="tilde" format="1">
  <advance width="772"/>
  <unicode hex="02DC"/>
  <outline>
    <contour>
      <point x="519" y="1932" type="curve" smooth="yes"/>
      <point x="603" y="1932"/>
      <point x="712" y="2001"/>
      <point x="712" y="2114" type="curve"/>
      <point x="586" y="2114" type="line"/>
      <point x="579" y="2065"/>
      <point x="565" y="1995"/>
      <point x="504" y="1995" type="curve" smooth="yes"/>
      <point x="413" y="1995"/>
      <point x="417" y="2112"/>
      <point x="235" y="2112" type="curve" smooth="yes"/>
      <point x="144" y="2112"/>
      <point x="62" y="2020"/>
      <point x="62" y="1934" type="curve"/>
      <point x="184" y="1934" type="line"/>
      <point x="190" y="2002"/>
      <point x="217" y="2044"/>
      <point x="254" y="2044" type="curve" smooth="yes"/>
      <point x="340" y="2044"/>
      <point x="404" y="1932"/>
    </contour>
  </outline>
</glyph>
<glyph name="hungarumlaut" format="1">
  <advance width="612"/>
  <unicode hex="02DD"/>
  <outline>
    <contour>
      <point x="16" y="1110" type="line"/>
      <point x="107" y="1110" type="line"/>
      <point x="344" y="1452" type="line"/>
      <point x="201" y="1452" type="line"/>
    </contour>
    <contour>
      <point x="216" y="1110" type="line"/>
      <point x="306" y="1110" type="line"/>
      <point x="594" y="1452" type="line"/>
      <point x="414" y="1452" type="line"/>
    </contour>
  </outline>
</glyph>
<glyph name="Delta" format="1">
  <advance width="1160"/>
  <unicode hex="0394"/>
  <outline>
    <contour>
      <point x="84" y="0" type="line"/>
      <point x="1075" y="0" type="line"/>
      <point x="1075" y="38" type="line"/>
      <point x="695" y="1368" type="line"/>
      <point x="480" y="1368" type="line"/>
      <point x="84" y="35" type="line"/>
    </contour>
    <contour>
      <point x="275" y="73" type="line"/>
      <point x="280" y="73"/>
      <point x="572" y="1265"/>
      <point x="588" y="1342" type="curve"/>
      <point x="594" y="1342" type="line"/>
      <point x="580" y="1413"/>
      <point x="881" y="73"/>
      <point x="881" y="73" type="curve"/>
    </contour>
  </outline>
</glyph>
<glyph name="Omega" format="1">
  <advance width="1413"/>
  <unicode hex="03A9"/>
  <outline>
    <contour>
      <point x="77" y="0" type="line"/>
      <point x="607" y="0" type="line"/>
      <point x="607" y="197" type="line"/>
      <point x="446" y="332"/>
      <point x="368" y="504"/>
      <point x="368" y="718" type="curve" smooth="yes"/>
      <point x="368" y="972"/>
      <point x="512" y="1132"/>
      <point x="712" y="1132" type="curve" smooth="yes"/>
      <point x="912" y="1132"/>
      <point x="1041" y="952"/>
      <point x="1041" y="723" type="curve" smooth="yes"/>
      <point x="1041" y="491"/>
      <point x="949" y="316"/>
      <point x="804" y="197" type="curve"/>
      <point x="804" y="0" type="line"/>
      <point x="1333" y="0" type="line"/>
      <point x="1333" y="214" type="line"/>
      <point x="1105" y="214" type="line"/>
      <point x="1032" y="215" type="line"/>
      <point x="1213" y="332"/>
      <point x="1326" y="519"/>
      <point x="1326" y="766" type="curve" smooth="yes"/>
      <point x="1326" y="1091"/>
      <point x="1080" y="1358"/>
      <point x="705" y="1358" type="curve" smooth="yes"/>
      <point x="343" y="1358"/>
      <point x="87" y="1117"/>
      <point x="87" y="764" type="curve" smooth="yes"/>
      <point x="87" y="518"/>
      <point x="204" y="311"/>
      <point x="375" y="214" type="curve"/>
      <point x="77" y="214" type="line"/>
    </contour>
  </outline>
</glyph>
<glyph name="pi" format="1">
  <advance width="1198"/>
  <unicode hex="03C0"/>
  <outline>
    <contour>
      <point x="154" y="0" type="curve"/>
      <point x="409" y="0" type="line"/>
      <point x="435" y="71"/>
      <point x="454" y="183"/>
      <point x="460" y="316" type="curve" smooth="yes"/>
      <point x="467" y="472"/>
      <point x="475" y="635"/>
      <point x="477" y="776" type="curve"/>
      <point x="717" y="776" type="line"/>
      <point x="717" y="326" type="line" smooth="yes"/>
      <point x="717" y="145"/>
      <point x="784" y="32"/>
      <point x="914" y="7" type="curve"/>
      <point x="951" y="1"/>
      <point x="988" y="-4"/>
      <point x="1024" y="6" type="curve"/>
      <point x="1086" y="149" type="line"/>
      <point x="1062" y="163"/>
      <point x="1042" y="183"/>
      <point x="1024" y="237" type="curve"/>
      <point x="989" y="251"/>
      <point x="969" y="286"/>
      <point x="969" y="355" type="curve" smooth="yes"/>
      <point x="969" y="776" type="line"/>
      <point x="1147" y="776" type="line"/>
      <point x="1152" y="976" type="line"/>
      <point x="328" y="976" type="line" smooth="yes"/>
      <point x="180" y="976"/>
      <point x="77" y="967"/>
      <point x="8" y="919" type="curve"/>
      <point x="17" y="717" type="line"/>
      <point x="81" y="756"/>
      <point x="146" y="776"/>
      <point x="227" y="776" type="curve"/>
      <point x="223" y="642"/>
      <point x="215" y="481"/>
      <point x="209" y="332" type="curve"/>
      <point x="199" y="203"/>
      <point x="184" y="82"/>
    </contour>
  </outline>
</glyph>
<glyph name="endash" format="1">
  <advance width="1484"/>
  <unicode hex="2013"/>
  <outline>
    <contour>
      <point x="106" y="672" type="line"/>
      <point x="1378" y="672" type="line"/>
      <point x="1378" y="713" type="line"/>
      <point x="106" y="713" type="line"/>
    </contour>
  </outline>
</glyph>
<glyph name="emdash" format="1">
  <advance width="2129"/>
  <unicode hex="2014"/>
  <outline>
    <contour>
      <point x="106" y="672" type="line"/>
      <point x="2023" y="672" type="line"/>
      <point x="2023" y="713" type="line"/>
      <point x="106" y="713" type="line"/>
    </contour>
  </outline>
</glyph>
<glyph name="quoteleft" format="1">
  <advance width="352"/>
  <unicode hex="2018"/>
  <outline>
    <contour>
      <point x="210" y="1027" type="line"/>
      <point x="300" y="1027" type="line"/>
      <point x="205" y="1481" type="line"/>
      <point x="47" y="1481" type="line"/>
    </contour>
  </outline>
</glyph>
<glyph name="quoteright" format="1">
  <advance width="357"/>
  <unicode hex="2019"/>
  <outline>
    <contour>
      <point x="52" y="995" type="line"/>
      <point x="155" y="995" type="line"/>
      <point x="311" y="1481" type="line"/>
      <point x="152" y="1481" type="line"/>
    </contour>
  </outline>
</glyph>
<glyph name="quotesinglbase" format="1">
  <advance width="416"/>
  <unicode hex="201A"/>
  <outline>
    <contour>
      <point x="49" y="-245" type="line"/>
      <point x="184" y="-245" type="line"/>
      <point x="373" y="241" type="line"/>
      <point x="146" y="241" type="line"/>
    </contour>
  </outline>
</glyph>
<glyph name="quotedblleft" format="1">
  <advance width="655"/>
  <unicode hex="201C"/>
  <outline>
    <contour>
      <point x="226" y="1027" type="line"/>
      <point x="306" y="1027" type="line"/>
      <point x="210" y="1481" type="line"/>
      <point x="53" y="1481" type="line"/>
    </contour>
    <contour>
      <point x="505" y="1027" type="line"/>
      <point x="584" y="1027" type="line"/>
      <point x="490" y="1481" type="line"/>
      <point x="332" y="1481" type="line"/>
    </contour>
  </outline>
</glyph>
<glyph name="quotedblright" format="1">
  <advance width="657"/>
  <unicode hex="201D"/>
  <outline>
    <contour>
      <point x="68" y="995" type="line"/>
      <point x="155" y="995" type="line"/>
      <point x="311" y="1481" type="line"/>
      <point x="152" y="1481" type="line"/>
    </contour>
    <contour>
      <point x="364" y="995" type="line"/>
      <point x="450" y="995" type="line"/>
      <point x="610" y="1481" type="line"/>
      <point x="449" y="1481" type="line"/>
    </contour>
  </outline>
</glyph>
<glyph name="quotedblbase" format="1">
  <advance width="844"/>
  <unicode hex="201E"/>
  <outline>
    <contour>
      <point x="47" y="-245" type="line"/>
      <point x="203" y="-245" type="line"/>
      <point x="420" y="241" type="line"/>
      <point x="145" y="241" type="line"/>
    </contour>
    <contour>
      <point x="433" y="-245" type="line"/>
      <point x="590" y="-245" type="line"/>
      <point x="808" y="241" type="line"/>
      <point x="530" y="241" type="line"/>
    </contour>
  </outline>
</glyph>
<glyph name="dagger" format="1">
  <advance width="1053"/>
  <unicode hex="2020"/>
  <outline>
    <contour>
      <point x="477" y="-48" type="line"/>
      <point x="590" y="-48" type="line"/>
      <point x="590" y="903" type="line"/>
      <point x="959" y="903" type="line"/>
      <point x="959" y="978" type="line"/>
      <point x="593" y="978" type="line"/>
      <point x="593" y="1426" type="line"/>
      <point x="481" y="1426" type="line"/>
      <point x="481" y="980" type="line"/>
      <point x="94" y="980" type="line"/>
      <point x="94" y="907" type="line"/>
      <point x="477" y="907" type="line"/>
    </contour>
  </outline>
</glyph>
<glyph name="daggerdbl" format="1">
  <advance width="1063"/>
  <unicode hex="2021"/>
  <outline>
    <contour>
      <point x="471" y="-51" type="line"/>
      <point x="589" y="-51" type="line"/>
      <point x="589" y="414" type="line"/>
      <point x="969" y="414" type="line"/>
      <point x="969" y="489" type="line"/>
      <point x="591" y="489" type="line"/>
      <point x="591" y="873" type="line"/>
      <point x="958" y="873" type="line"/>
      <point x="958" y="948" type="line"/>
      <point x="592" y="948" type="line"/>
      <point x="592" y="1426" type="line"/>
      <point x="473" y="1426" type="line"/>
      <point x="473" y="950" type="line"/>
      <point x="93" y="950" type="line"/>
      <point x="93" y="876" type="line"/>
      <point x="472" y="876" type="line"/>
      <point x="472" y="492" type="line"/>
      <point x="105" y="492" type="line"/>
      <point x="105" y="416" type="line"/>
      <point x="471" y="416" type="line"/>
    </contour>
  </outline>
</glyph>
<glyph name="perthousand" format="1">
  <advance width="2459"/>
  <unicode hex="2030"/>
  <outline>
    <contour>
      <point x="354" y="849" type="curve" smooth="yes"/>
      <point x="263" y="849"/>
      <point x="260" y="926"/>
      <point x="260" y="1030" type="curve" smooth="yes"/>
      <point x="260" y="1152"/>
      <point x="265" y="1225"/>
      <point x="354" y="1225" type="curve" smooth="yes"/>
      <point x="440" y="1225"/>
      <point x="451" y="1154"/>
      <point x="451" y="1043" type="curve"/>
      <point x="449" y="908"/>
      <point x="434" y="849"/>
    </contour>
    <contour>
      <point x="354" y="681" type="curve" smooth="yes"/>
      <point x="574" y="681"/>
      <point x="674" y="800"/>
      <point x="674" y="1061" type="curve" smooth="yes"/>
      <point x="674" y="1282"/>
      <point x="558" y="1389"/>
      <point x="354" y="1389" type="curve" smooth="yes"/>
      <point x="138" y="1389"/>
      <point x="34" y="1273"/>
      <point x="34" y="1011" type="curve" smooth="yes"/>
      <point x="34" y="787"/>
      <point x="151" y="681"/>
    </contour>
    <contour>
      <point x="352" y="0" type="line"/>
      <point x="596" y="0" type="line"/>
      <point x="1322" y="1384" type="line"/>
      <point x="1081" y="1384" type="line"/>
    </contour>
    <contour>
      <point x="1336" y="164" type="curve" smooth="yes"/>
      <point x="1245" y="164"/>
      <point x="1237" y="241"/>
      <point x="1237" y="346" type="curve" smooth="yes"/>
      <point x="1237" y="465"/>
      <point x="1247" y="537"/>
      <point x="1336" y="537" type="curve" smooth="yes"/>
      <point x="1423" y="537"/>
      <point x="1433" y="468"/>
      <point x="1433" y="357" type="curve" smooth="yes"/>
      <point x="1433" y="223"/>
      <point x="1416" y="164"/>
    </contour>
    <contour>
      <point x="1336" y="-3" type="curve" smooth="yes"/>
      <point x="1557" y="-3"/>
      <point x="1655" y="115"/>
      <point x="1655" y="375" type="curve" smooth="yes"/>
      <point x="1655" y="596"/>
      <point x="1540" y="703"/>
      <point x="1336" y="703" type="curve" smooth="yes"/>
      <point x="1121" y="703"/>
      <point x="1016" y="586"/>
      <point x="1016" y="326" type="curve" smooth="yes"/>
      <point x="1016" y="101"/>
      <point x="1134" y="-3"/>
    </contour>
    <contour>
      <point x="2105" y="164" type="curve" smooth="yes"/>
      <point x="2014" y="164"/>
      <point x="2010" y="242"/>
      <point x="2010" y="346" type="curve" smooth="yes"/>
      <point x="2010" y="465"/>
      <point x="2016" y="537"/>
      <point x="2105" y="537" type="curve" smooth="yes"/>
      <point x="2192" y="537"/>
      <point x="2202" y="468"/>
      <point x="2202" y="357" type="curve"/>
      <point x="2200" y="223"/>
      <point x="2185" y="164"/>
    </contour>
    <contour>
      <point x="2105" y="-3" type="curve" smooth="yes"/>
      <point x="2326" y="-3"/>
      <point x="2423" y="115"/>
      <point x="2423" y="375" type="curve" smooth="yes"/>
      <point x="2423" y="596"/>
      <point x="2309" y="703"/>
      <point x="2105" y="703" type="curve" smooth="yes"/>
      <point x="1890" y="703"/>
      <point x="1783" y="586"/>
      <point x="1783" y="326" type="curve" smooth="yes"/>
      <point x="1783" y="101"/>
      <point x="1903" y="-3"/>
    </contour>
  </outline>
</glyph>
<glyph name="guilsinglleft" format="1">
  <advance width="516"/>
  <unicode hex="2039"/>
  <outline>
    <contour>
      <point x="514" y="183" type="curve"/>
      <point x="514" y="301" type="line"/>
      <point x="575" y="251"/>
      <point x="-11" y="624"/>
      <point x="50" y="576" type="curve"/>
      <point x="514" y="856" type="line"/>
      <point x="514" y="996" type="line"/>
      <point x="514" y="996"/>
      <point x="100" y="719"/>
      <point x="-2" y="633" type="curve"/>
      <point x="-2" y="533" type="line"/>
      <point x="100" y="457"/>
      <point x="514" y="183"/>
    </contour>
  </outline>
</glyph>
<glyph name="guilsinglright" format="1">
  <advance width="683"/>
  <unicode hex="203A"/>
  <outline>
    <contour>
      <point x="87" y="183" type="line"/>
      <point x="87" y="183"/>
      <point x="501" y="458"/>
      <point x="603" y="544" type="curve"/>
      <point x="603" y="648" type="line"/>
      <point x="501" y="724"/>
      <point x="87" y="996"/>
      <point x="87" y="996" type="curve"/>
      <point x="87" y="880" type="line"/>
      <point x="26" y="930"/>
      <point x="611" y="561"/>
      <point x="549" y="609" type="curve"/>
      <point x="87" y="325" type="line"/>
    </contour>
  </outline>
</glyph>
<glyph name="fraction" format="1">
  <advance width="776"/>
  <unicode hex="2044"/>
  <outline>
    <contour>
      <point x="30" y="10" type="line"/>
      <point x="123" y="10" type="line"/>
      <point x="746" y="1450" type="line"/>
      <point x="658" y="1450" type="line"/>
    </contour>
  </outline>
</glyph>
<glyph name="Euro" format="1">
  <advance width="1312"/>
  <unicode hex="20AC"/>
  <outline>
    <contour>
      <point x="879" y="-23" type="curve" smooth="yes"/>
      <point x="976" y="-23"/>
      <point x="1153" y="-4"/>
      <point x="1280" y="128" type="curve"/>
      <point x="1280" y="336" type="line"/>
      <point x="1204" y="336" type="line"/>
      <point x="1179" y="88"/>
      <point x="942" y="82"/>
      <point x="842" y="82" type="curve"/>
      <point x="525" y="82"/>
      <point x="339" y="321"/>
      <point x="296" y="619" type="curve"/>
      <point x="1032" y="619" type="line"/>
      <point x="1056" y="706" type="line"/>
      <point x="289" y="706" type="line"/>
      <point x="289" y="708"/>
      <point x="288" y="712"/>
      <point x="288" y="720" type="curve" smooth="yes"/>
      <point x="288" y="789"/>
      <point x="291" y="803"/>
      <point x="293" y="819" type="curve"/>
      <point x="1071" y="819" type="line"/>
      <point x="1097" y="905" type="line"/>
      <point x="304" y="905" type="line"/>
      <point x="365" y="1335"/>
      <point x="657" y="1421"/>
      <point x="825" y="1421" type="curve" smooth="yes"/>
      <point x="1045" y="1421"/>
      <point x="1168" y="1319"/>
      <point x="1231" y="1143" type="curve"/>
      <point x="1280" y="1143" type="line"/>
      <point x="1280" y="1353" type="line"/>
      <point x="1162" y="1473"/>
      <point x="1011" y="1503"/>
      <point x="871" y="1503" type="curve" smooth="yes"/>
      <point x="549" y="1503"/>
      <point x="286" y="1333"/>
      <point x="191" y="905" type="curve"/>
      <point x="35" y="905" type="line"/>
      <point x="24" y="819" type="line"/>
      <point x="189" y="819" type="line"/>
      <point x="189" y="819"/>
      <point x="187" y="844"/>
      <point x="187" y="778" type="curve" smooth="yes"/>
      <point x="187" y="762"/>
      <point x="186" y="737"/>
      <point x="188" y="706" type="curve"/>
      <point x="43" y="706" type="line"/>
      <point x="20" y="619" type="line"/>
      <point x="185" y="619" type="line"/>
      <point x="265" y="197"/>
      <point x="491" y="-23"/>
    </contour>
  </outline>
</glyph>
<glyph name="trademark" format="1">
  <advance width="1391"/>
  <unicode hex="2122"/>
  <outline>
    <contour>
      <point x="650" y="769" type="line"/>
      <point x="735" y="769" type="line"/>
      <point x="735" y="1383" type="line"/>
      <point x="737" y="1383" type="line"/>
      <point x="943" y="918" type="line"/>
      <point x="999" y="918" type="line"/>
      <point x="1197" y="1380" type="line"/>
      <point x="1201" y="1380" type="line"/>
      <point x="1201" y="769" type="line"/>
      <point x="1292" y="769" type="line"/>
      <point x="1292" y="1481" type="line"/>
      <point x="1169" y="1481" type="line"/>
      <point x="973" y="1006" type="line"/>
      <point x="782" y="1481" type="line"/>
      <point x="650" y="1481" type="line"/>
    </contour>
    <contour>
      <point x="275" y="769" type="line"/>
      <point x="351" y="769" type="line"/>
      <point x="351" y="1416" type="line"/>
      <point x="540" y="1416" type="line"/>
      <point x="540" y="1481" type="line"/>
      <point x="86" y="1481" type="line"/>
      <point x="86" y="1416" type="line"/>
      <point x="275" y="1416" type="line"/>
    </contour>
  </outline>
</glyph>
<glyph name="partialdiff" format="1">
  <advance width="1090"/>
  <unicode hex="2202"/>
  <outline>
    <contour>
      <point x="443" y="-16" type="curve" smooth="yes"/>
      <point x="781" y="-16"/>
      <point x="983" y="267"/>
      <point x="1028" y="707" type="curve"/>
      <point x="1034" y="773"/>
      <point x="1042" y="837"/>
      <point x="1039" y="899" type="curve" smooth="yes"/>
      <point x="1027" y="1251"/>
      <point x="868" y="1423"/>
      <point x="600" y="1439" type="curve" smooth="yes"/>
      <point x="466" y="1445"/>
      <point x="365" y="1412"/>
      <point x="286" y="1367" type="curve"/>
      <point x="262" y="1166" type="line"/>
      <point x="338" y="1212"/>
      <point x="434" y="1253"/>
      <point x="547" y="1231" type="curve"/>
      <point x="690" y="1210"/>
      <point x="773" y="1068"/>
      <point x="773" y="857" type="curve" smooth="yes"/>
      <point x="773" y="850"/>
      <point x="773" y="832"/>
      <point x="770" y="814" type="curve"/>
      <point x="766" y="814" type="line"/>
      <point x="721" y="885"/>
      <point x="633" y="951"/>
      <point x="514" y="951" type="curve" smooth="yes"/>
      <point x="248" y="951"/>
      <point x="53" y="707"/>
      <point x="53" y="396" type="curve" smooth="yes"/>
      <point x="53" y="161"/>
      <point x="192" y="-16"/>
    </contour>
    <contour>
      <point x="480" y="187" type="curve" smooth="yes"/>
      <point x="378" y="187"/>
      <point x="326" y="265"/>
      <point x="326" y="398" type="curve" smooth="yes"/>
      <point x="326" y="576"/>
      <point x="432" y="761"/>
      <point x="569" y="761" type="curve" smooth="yes"/>
      <point x="659" y="761"/>
      <point x="721" y="696"/>
      <point x="742" y="609" type="curve"/>
      <point x="716" y="377"/>
      <point x="613" y="187"/>
    </contour>
  </outline>
</glyph>
<glyph name="product" format="1">
  <advance width="1258"/>
  <unicode hex="220F"/>
  <outline>
    <contour>
      <point x="106" y="-265" type="line"/>
      <point x="232" y="-265" type="line"/>
      <point x="232" y="1372" type="line"/>
      <point x="1025" y="1372" type="line"/>
      <point x="1025" y="-265" type="line"/>
      <point x="1152" y="-265" type="line"/>
      <point x="1152" y="1428" type="line"/>
      <point x="106" y="1428" type="line"/>
    </contour>
  </outline>
</glyph>
<glyph name="summation" format="1">
  <advance width="1092"/>
  <unicode hex="2211"/>
  <outline>
    <contour>
      <point x="90" y="0" type="line"/>
      <point x="998" y="0" type="line"/>
      <point x="998" y="63" type="line"/>
      <point x="192" y="63" type="line"/>
      <point x="715" y="736" type="line"/>
      <point x="190" y="1421" type="line"/>
      <point x="964" y="1421" type="line"/>
      <point x="964" y="1481" type="line"/>
      <point x="113" y="1481" type="line"/>
      <point x="113" y="1424" type="line"/>
      <point x="650" y="739" type="line"/>
      <point x="90" y="23" type="line"/>
    </contour>
  </outline>
</glyph>
<glyph name="minus" format="1">
  <advance width="1184"/>
  <unicode hex="2212"/>
  <outline>
    <contour>
      <point x="106" y="411" type="line"/>
      <point x="1078" y="411" type="line"/>
      <point x="1078" y="527" type="line"/>
      <point x="106" y="527" type="line"/>
    </contour>
  </outline>
</glyph>
<glyph name="uni2215" format="1">
  <advance width="-131"/>
  <unicode hex="2215"/>
  <outline>
    <contour>
      <point x="-385" y="0" type="line"/>
      <point x="-146" y="0" type="line"/>
      <point x="308" y="1478" type="line"/>
      <point x="69" y="1478" type="line"/>
    </contour>
  </outline>
</glyph>
<glyph name="uni2219" format="1">
  <advance width="357"/>
  <unicode hex="2219"/>
  <outline>
    <contour>
      <point x="179" y="432" type="curve" smooth="yes"/>
      <point x="251" y="432"/>
      <point x="303" y="486"/>
      <point x="303" y="558" type="curve" smooth="yes"/>
      <point x="303" y="630"/>
      <point x="251" y="686"/>
      <point x="179" y="686" type="curve" smooth="yes"/>
      <point x="107" y="686"/>
      <point x="47" y="630"/>
      <point x="47" y="558" type="curve" smooth="yes"/>
      <point x="47" y="486"/>
      <point x="107" y="432"/>
    </contour>
  </outline>
</glyph>
<glyph name="radical" format="1">
  <advance width="1095"/>
  <unicode hex="221A"/>
  <outline>
    <contour>
      <point x="505" y="-100" type="line"/>
      <point x="685" y="-100" type="line"/>
      <point x="1064" y="1471" type="line"/>
      <point x="941" y="1471" type="line"/>
      <point x="850" y="1099"/>
      <point x="744" y="552"/>
      <point x="653" y="180" type="curve" smooth="yes"/>
      <point x="589" y="-84" type="line"/>
      <point x="607" y="-119"/>
      <point x="544" y="117"/>
      <point x="525" y="173" type="curve"/>
      <point x="356" y="813" type="line"/>
      <point x="35" y="771" type="line"/>
      <point x="48" y="664" type="line"/>
      <point x="292" y="700" type="line"/>
    </contour>
  </outline>
</glyph>
<glyph name="notequal" format="1">
  <advance width="1105"/>
  <unicode hex="2260"/>
  <outline>
    <contour>
      <point x="229" y="28" type="line"/>
      <point x="313" y="37" type="line"/>
      <point x="459" y="322" type="line"/>
      <point x="1007" y="322" type="line"/>
      <point x="990" y="379" type="line"/>
      <point x="491" y="379" type="line"/>
      <point x="662" y="712" type="line"/>
      <point x="1007" y="712" type="line"/>
      <point x="1007" y="772" type="line"/>
      <point x="677" y="772" type="line"/>
      <point x="825" y="1051" type="line"/>
      <point x="757" y="1040" type="line"/>
      <point x="605" y="772" type="line"/>
      <point x="107" y="772" type="line"/>
      <point x="107" y="712" type="line"/>
      <point x="583" y="712" type="line"/>
      <point x="416" y="379" type="line"/>
      <point x="91" y="379" type="line"/>
      <point x="107" y="322" type="line"/>
      <point x="384" y="322" type="line"/>
    </contour>
  </outline>
</glyph>
<glyph name="lessequal" format="1">
  <advance width="1100"/>
  <unicode hex="2264"/>
  <outline>
    <contour>
      <point x="987" y="220" type="line"/>
      <point x="987" y="410" type="line"/>
      <point x="326" y="679" type="line"/>
      <point x="987" y="957" type="line"/>
      <point x="987" y="1149" type="line"/>
      <point x="115" y="754" type="line"/>
      <point x="115" y="603" type="line"/>
    </contour>
    <contour>
      <point x="97" y="0" type="line"/>
      <point x="998" y="0" type="line"/>
      <point x="998" y="168" type="line"/>
      <point x="97" y="168" type="line"/>
    </contour>
  </outline>
</glyph>
<glyph name="greaterequal" format="1">
  <advance width="1063"/>
  <unicode hex="2265"/>
  <outline>
    <contour>
      <point x="119" y="220" type="line"/>
      <point x="951" y="603" type="line"/>
      <point x="951" y="751" type="line"/>
      <point x="119" y="1149" type="line"/>
      <point x="119" y="957" type="line"/>
      <point x="750" y="677" type="line"/>
      <point x="119" y="410" type="line"/>
    </contour>
    <contour>
      <point x="101" y="0" type="line"/>
      <point x="962" y="0" type="line"/>
      <point x="962" y="168" type="line"/>
      <point x="101" y="168" type="line"/>
    </contour>
  </outline>
</glyph>
<glyph name="lozenge" format="1">
  <advance width="947"/>
  <unicode hex="25CA"/>
  <outline>
    <contour>
      <point x="439" y="-30" type="line"/>
      <point x="501" y="-30" type="line"/>
      <point x="872" y="670" type="line"/>
      <point x="520" y="1371" type="line"/>
      <point x="442" y="1371" type="line"/>
      <point x="75" y="668" type="line"/>
    </contour>
    <contour>
      <point x="472" y="26" type="curve"/>
      <point x="144" y="674" type="line"/>
      <point x="148" y="674"/>
      <point x="477" y="1316"/>
      <point x="477" y="1318" type="curve"/>
      <point x="478" y="1316"/>
      <point x="801" y="667"/>
      <point x="801" y="667" type="curve" smooth="yes"/>
      <point x="801" y="664"/>
      <point x="472" y="20"/>
    </contour>
  </outline>
</glyph>
<glyph name="dblgravecmb" format="1">
  <advance width="610"/>
  <outline>
    <contour>
      <point x="352" y="1110" type="line"/>
      <point x="442" y="1110" type="line"/>
      <point x="244" y="1452" type="line"/>
      <point x="49" y="1452" type="line"/>
    </contour>
    <contour>
      <point x="553" y="1110" type="line"/>
      <point x="641" y="1110" type="line"/>
      <point x="442" y="1452" type="line"/>
      <point x="316" y="1452" type="line"/>
    </contour>
  </outline>
</glyph>
<glyph name="f_i" format="1">
  <advance width="1097"/>
  <outline>
    <contour>
      <point x="216" y="0" type="line"/>
      <point x="343" y="0" type="line"/>
      <point x="343" y="938" type="line"/>
      <point x="783" y="938" type="line"/>
      <point x="783" y="0" type="line"/>
      <point x="912" y="0" type="line"/>
      <point x="912" y="1028" type="line"/>
      <point x="335" y="1028" type="line"/>
      <point x="335" y="1277"/>
      <point x="387" y="1315"/>
      <point x="551" y="1315" type="curve" smooth="yes"/>
      <point x="575" y="1315"/>
      <point x="625" y="1305"/>
      <point x="625" y="1305" type="curve"/>
      <point x="625" y="1414" type="line"/>
      <point x="572" y="1420"/>
      <point x="611" y="1424"/>
      <point x="536" y="1424" type="curve" smooth="yes"/>
      <point x="271" y="1424"/>
      <point x="216" y="1313"/>
      <point x="216" y="1064" type="curve" smooth="yes"/>
      <point x="216" y="1028" type="line"/>
      <point x="23" y="1028" type="line"/>
      <point x="23" y="938" type="line"/>
      <point x="216" y="938" type="line"/>
    </contour>
    <contour>
      <point x="859" y="1221" type="curve" smooth="yes"/>
      <point x="930" y="1221"/>
      <point x="967" y="1272"/>
      <point x="967" y="1323" type="curve" smooth="yes"/>
      <point x="967" y="1374"/>
      <point x="929" y="1426"/>
      <point x="859" y="1426" type="curve" smooth="yes"/>
      <point x="785" y="1426"/>
      <point x="751" y="1375"/>
      <point x="751" y="1323" type="curve" smooth="yes"/>
      <point x="751" y="1272"/>
      <point x="788" y="1221"/>
    </contour>
  </outline>
</glyph>
<glyph name="f_l" format="1">
  <advance width="1179"/>
  <outline>
    <contour>
      <point x="1064" y="-11" type="curve" smooth="yes"/>
      <point x="1146" y="-11" type="line"/>
      <point x="1146" y="107" type="line"/>
      <point x="912" y="107"/>
      <point x="905" y="131"/>
      <point x="905" y="297" type="curve" smooth="yes"/>
      <point x="905" y="1395" type="line"/>
      <point x="905" y="1395"/>
      <point x="692" y="1424"/>
      <point x="575" y="1424" type="curve" smooth="yes"/>
      <point x="310" y="1424"/>
      <point x="216" y="1313"/>
      <point x="216" y="1064" type="curve" smooth="yes"/>
      <point x="216" y="1028" type="line"/>
      <point x="23" y="1028" type="line"/>
      <point x="23" y="938" type="line"/>
      <point x="216" y="938" type="line"/>
      <point x="216" y="0" type="line"/>
      <point x="343" y="0" type="line"/>
      <point x="343" y="938" type="line"/>
      <point x="636" y="938" type="line"/>
      <point x="636" y="1028" type="line"/>
      <point x="335" y="1028" type="line"/>
      <point x="335" y="1277"/>
      <point x="375" y="1329"/>
      <point x="586" y="1329" type="curve" smooth="yes"/>
      <point x="610" y="1329"/>
      <point x="779" y="1317"/>
      <point x="779" y="1317" type="curve"/>
      <point x="779" y="256" type="line" smooth="yes"/>
      <point x="779" y="46"/>
      <point x="820" y="-11"/>
    </contour>
  </outline>
</glyph>
<glyph name="one.superior" format="1">
  <advance width="592"/>
  <outline>
    <contour>
      <point x="99" y="552" type="line"/>
      <point x="514" y="552" type="line"/>
      <point x="514" y="653" type="line"/>
      <point x="374" y="653" type="line"/>
      <point x="374" y="1373" type="line"/>
      <point x="224" y="1373" type="line"/>
      <point x="203" y="1332"/>
      <point x="166" y="1296"/>
      <point x="85" y="1277" type="curve"/>
      <point x="85" y="1194" type="line"/>
      <point x="240" y="1240" type="line"/>
      <point x="240" y="653" type="line"/>
      <point x="99" y="653" type="line"/>
    </contour>
  </outline>
</glyph>
<glyph name="three.superior" format="1">
  <advance width="709"/>
  <outline>
    <contour>
      <point x="324" y="544" type="curve" smooth="yes"/>
      <point x="521" y="544"/>
      <point x="636" y="643"/>
      <point x="636" y="784" type="curve" smooth="yes"/>
      <point x="636" y="894"/>
      <point x="550" y="965"/>
      <point x="475" y="988" type="curve"/>
      <point x="542" y="1018"/>
      <point x="608" y="1063"/>
      <point x="608" y="1167" type="curve" smooth="yes"/>
      <point x="608" y="1279"/>
      <point x="521" y="1381"/>
      <point x="319" y="1381" type="curve" smooth="yes"/>
      <point x="224" y="1381"/>
      <point x="130" y="1357"/>
      <point x="80" y="1321" type="curve"/>
      <point x="80" y="1226" type="line"/>
      <point x="113" y="1226" type="line"/>
      <point x="113" y="1226"/>
      <point x="182" y="1279"/>
      <point x="305" y="1279" type="curve" smooth="yes"/>
      <point x="420" y="1279"/>
      <point x="475" y="1234"/>
      <point x="475" y="1167" type="curve" smooth="yes"/>
      <point x="475" y="1091"/>
      <point x="433" y="1032"/>
      <point x="291" y="1032" type="curve" smooth="yes"/>
      <point x="225" y="1032" type="line"/>
      <point x="225" y="949" type="line"/>
      <point x="291" y="949" type="line" smooth="yes"/>
      <point x="446" y="949"/>
      <point x="507" y="860"/>
      <point x="507" y="784" type="curve" smooth="yes"/>
      <point x="507" y="695"/>
      <point x="435" y="645"/>
      <point x="310" y="645" type="curve" smooth="yes"/>
      <point x="162" y="645"/>
      <point x="113" y="704"/>
      <point x="113" y="704" type="curve"/>
      <point x="80" y="704" type="line"/>
      <point x="80" y="607" type="line"/>
      <point x="113" y="584"/>
      <point x="202" y="544"/>
    </contour>
  </outline>
</glyph>
<glyph name="two.superior" format="1">
  <advance width="675"/>
  <outline>
    <contour>
      <point x="92" y="553" type="line"/>
      <point x="577" y="553" type="line"/>
      <point x="577" y="653" type="line"/>
      <point x="242" y="653" type="line"/>
      <point x="438" y="847"/>
      <point x="574" y="995"/>
      <point x="574" y="1156" type="curve" smooth="yes"/>
      <point x="574" y="1294"/>
      <point x="490" y="1382"/>
      <point x="331" y="1382" type="curve" smooth="yes"/>
      <point x="249" y="1382"/>
      <point x="140" y="1344"/>
      <point x="104" y="1308" type="curve"/>
      <point x="128" y="1214" type="line"/>
      <point x="159" y="1242"/>
      <point x="255" y="1280"/>
      <point x="311" y="1280" type="curve" smooth="yes"/>
      <point x="425" y="1280"/>
      <point x="457" y="1234"/>
      <point x="457" y="1154" type="curve" smooth="yes"/>
      <point x="457" y="1028"/>
      <point x="256" y="811"/>
      <point x="92" y="651" type="curve"/>
    </contour>
  </outline>
</glyph>
